<svg width="347" height="482" viewBox="0 0 347 482" fill="none" xmlns="http://www.w3.org/2000/svg">
<path d="M4.62 466.14C2.142 466.14 0.644 464.292 0.644 461.044C0.644 457.81 2.156 455.962 4.62 455.976C7.084 455.962 8.596 457.824 8.596 461.044C8.596 464.306 7.098 466.14 4.62 466.14ZM2.744 461.044C2.73 463.34 3.472 464.432 4.62 464.432C5.768 464.432 6.51 463.34 6.496 461.044C6.496 458.79 5.768 457.656 4.62 457.656C3.486 457.656 2.744 458.79 2.744 461.044ZM14.2822 456.088V466H12.2382V458.048H12.1542L9.88619 459.476V457.656L12.3502 456.088H14.2822ZM17.779 464.824C17.135 464.838 16.603 464.32 16.631 463.676C16.603 463.06 17.135 462.542 17.779 462.556C18.381 462.542 18.913 463.06 18.927 463.676C18.913 464.32 18.381 464.838 17.779 464.824ZM16.631 458.832C16.603 458.216 17.135 457.698 17.779 457.712C18.381 457.698 18.913 458.216 18.927 458.832C18.913 459.476 18.381 459.994 17.779 459.98C17.135 459.994 16.603 459.476 16.631 458.832ZM20.3582 464.236V462.612L24.5582 456.088H27.1342V462.584H28.3662V464.236H27.1342V466H25.1742V464.236H20.3582ZM22.4302 462.584H25.2022V458.356H25.0902L22.4302 462.528V462.584ZM33.3537 466.14C31.2817 466.14 29.7697 464.922 29.7417 463.228H31.7297C31.7717 463.984 32.4857 464.516 33.3537 464.516C34.3757 464.516 35.1037 463.788 35.0897 462.752C35.1037 461.716 34.3617 460.974 33.3257 460.988C32.5697 460.974 32.0517 461.254 31.7577 461.8H29.9097L30.4417 456.088H36.5177V457.796H32.1217L31.8697 460.288H31.9257C32.3037 459.798 33.0457 459.448 33.9137 459.448C35.7337 459.448 37.0917 460.806 37.0777 462.696C37.0917 464.712 35.5657 466.14 33.3537 466.14Z" fill="#666666"/>
<path d="M83.068 457.628C83.082 459.966 84.02 462.248 86.092 463.144L85.028 464.544C83.642 463.872 82.718 462.626 82.2 461.086C81.668 462.724 80.702 464.068 79.288 464.768L78.196 463.34C80.324 462.374 81.29 459.966 81.304 457.628V455.78H83.068V457.628ZM84.692 460.12V458.72H87.156V454.8H88.864V467.288H87.156V460.12H84.692ZM96.1476 454.912C99.0036 454.926 100.656 455.682 100.656 457.04C100.656 458.426 99.0036 459.182 96.1476 459.168C93.2636 459.182 91.5976 458.426 91.6116 457.04C91.5976 455.682 93.2636 454.926 96.1476 454.912ZM90.4636 461.1V459.756H101.832V461.1H96.9876V461.94H100.432V465.104H93.4876V465.86H100.768V467.176H91.7796V463.9H98.7236V463.228H91.7796V461.94H95.2516V461.1H90.4636ZM93.4316 457.04C93.4316 457.656 94.3136 457.894 96.1476 457.908C97.9816 457.894 98.8636 457.656 98.8636 457.04C98.8636 456.494 97.9816 456.214 96.1476 456.2C94.3136 456.214 93.4316 456.494 93.4316 457.04ZM113.315 454.8V467.26H111.663V461.016H110.487V466.644H108.863V455.024H110.487V459.616H111.663V454.8H113.315ZM102.927 464.432V456.256H107.575V457.656H104.663V462.976C105.867 462.962 106.931 462.892 108.135 462.668L108.275 464.096C106.749 464.39 105.433 464.432 103.795 464.432H102.927ZM122.055 455.92V457.292H114.663V455.92H117.491V454.744H119.227V455.92H122.055ZM115.279 460.008C115.279 458.636 116.553 457.712 118.359 457.712C120.165 457.712 121.425 458.636 121.439 460.008C121.425 461.366 120.165 462.29 118.359 462.276C116.553 462.29 115.279 461.366 115.279 460.008ZM116.175 464.544V463.144H124.547V467.26H122.783V464.544H116.175ZM116.987 460.008C116.973 460.638 117.533 460.96 118.359 460.96C119.199 460.96 119.759 460.638 119.759 460.008C119.759 459.364 119.199 459.014 118.359 459C117.533 459.014 116.973 459.364 116.987 460.008ZM122.783 462.612V454.8H124.547V458.048H126.227V459.476H124.547V462.612H122.783ZM137.094 455.892V457.096C137.08 458.622 137.08 460.33 136.618 462.836L134.91 462.696C135.316 460.414 135.33 458.748 135.33 457.292H127.882V455.892H137.094ZM126.762 465.748V464.32H129.17V460.4H130.934V464.32H132.306V460.4H134.014V464.32H138.13V465.748H126.762ZM149.061 455.724V456.508C149.061 457.362 149.061 458.594 148.781 460.148L147.073 459.98C147.297 458.79 147.353 457.894 147.367 457.152H142.677V455.724H149.061ZM141.921 461.044C142.621 461.044 143.419 461.044 144.245 461.03V458.58H145.981V460.974C147.213 460.918 148.487 460.82 149.649 460.652L149.761 461.912C147.157 462.388 144.245 462.43 142.089 462.444L141.921 461.044ZM143.769 467.036V463.284H145.505V465.636H152.505V467.036H143.769ZM150.321 464.124V454.8H152.113V458.608H153.625V460.064H152.113V464.124H150.321ZM157.688 455.5C159.62 455.486 161.076 456.76 161.076 458.524C161.076 460.316 159.62 461.576 157.688 461.576C155.742 461.576 154.272 460.316 154.272 458.524C154.272 456.76 155.742 455.486 157.688 455.5ZM155.7 464.012V462.612H164.072V467.26H162.308V464.012H155.7ZM155.98 458.524C155.98 459.518 156.708 460.106 157.688 460.092C158.654 460.106 159.382 459.518 159.396 458.524C159.382 457.558 158.654 456.984 157.688 456.984C156.708 456.984 155.98 457.558 155.98 458.524ZM162.308 462.08V454.8H164.072V457.74H165.752V459.168H164.072V462.08H162.308ZM171.804 455.584C171.804 458.804 170.488 461.072 167.044 462.472L166.232 461.212C167.66 460.666 168.626 459.98 169.242 459.154L166.568 459.42L166.344 458.048L169.886 457.866C169.97 457.6 170.026 457.306 170.068 457.012H166.876V455.584H171.804ZM168.5 467.12V462.584H176.984V467.12H168.5ZM170.208 465.72H175.276V463.956H170.208V465.72ZM172.56 461.996V455.052H174.212V457.712H175.332V454.828H176.984V462.108H175.332V459.14H174.212V461.996H172.56ZM185.611 455.92V457.32H184.407V462.822C184.925 462.78 185.429 462.724 185.919 462.668L186.031 463.928C183.497 464.376 180.641 464.418 178.499 464.432L178.331 463.004L179.731 462.99V457.32H178.695V455.92H185.611ZM181.439 462.962L182.727 462.92V457.32H181.439V462.962ZM185.247 460.736V459.336H187.179V454.8H188.887V467.26H187.179V460.736H185.247ZM197.039 456.452C197.039 458.286 198.649 460.232 201.463 460.708L200.707 462.164C198.537 461.73 196.927 460.512 196.115 458.916C195.303 460.498 193.679 461.716 191.523 462.164L190.767 460.708C193.553 460.218 195.163 458.258 195.191 456.452V455.556H197.039V456.452ZM190.487 465.72V464.292H201.883V465.72H190.487Z" fill="#242424"/>
<g clip-path="url(#clip0_61_4670)">
<path d="M57 445C50.2275 445 44.75 450.488 44.75 457.274C44.75 466.479 57 477 57 477C57 477 69.25 466.479 69.25 457.274C69.25 450.488 63.7725 445 57 445Z" fill="#AAAAAA"/>
<path d="M55.8574 456.98V457.98H53.2774V459.88H56.7574V460.88H48.6174V459.88H52.0574V457.98H49.5774V453.64H55.7974V454.62H50.8374V456.98H55.8574ZM60.54 454.92C60.54 455.84 61.18 456.8 62.62 457.18L62.04 458.18C61.04 457.9 60.34 457.31 59.93 456.58C59.54 457.38 58.83 458.01 57.8 458.3L57.2 457.34C58.64 456.94 59.3 455.92 59.3 454.92H57.5V453.94H59.3V452.98H60.56V453.94H62.32V454.92H60.54ZM58.34 459.82V458.82H64.32V461.9H63.06V459.82H58.34ZM63.06 458.46V453H64.32V455.2H65.52V456.24H64.32V458.46H63.06Z" fill="white"/>
</g>
<path d="M88.164 411.472V415.588H84.552V417.128H89.564V417.996H78.504V417.128H83.488V415.588H79.932V411.472H88.164ZM79.708 420.152V419.284H88.192V423.12H87.128V420.152H79.708ZM80.968 414.72H87.1V412.34H80.968V414.72ZM94.8316 413.208C94.8176 414.776 96.0356 416.288 97.8276 416.904L97.2676 417.744C95.8816 417.254 94.8176 416.246 94.2996 415C93.7676 416.4 92.6336 417.506 91.1916 418.024L90.6316 417.184C92.4376 416.54 93.7396 414.916 93.7396 413.208V412.676H90.9956V411.808H97.5476V412.676H94.8316V413.208ZM92.4796 419.76V418.892H100.656V423.12H99.5916V419.76H92.4796ZM97.1556 415.028V414.132H99.5916V410.968H100.656V418.248H99.5916V415.028H97.1556ZM107.043 414.692C107.043 416.75 108.541 418.85 110.319 419.62L109.731 420.46C108.303 419.83 107.085 418.43 106.511 416.75C105.951 418.528 104.719 420.068 103.319 420.768L102.703 419.928C104.439 419.088 105.951 416.792 105.951 414.692V413.096H103.095V412.2H109.927V413.096H107.043V414.692ZM111.635 423.12V410.968H112.699V423.12H111.635ZM124.407 410.968V415.98H126.255V416.876H124.407V423.12H123.343V410.968H124.407ZM114.747 419.76C116.581 417.87 117.323 415.602 117.463 413.18H115.139V412.284H118.471C118.471 415.168 117.813 418.024 115.615 420.348L114.747 419.76ZM118.247 420.572C120.137 418.416 120.711 415.728 120.809 413.18H118.863V412.284H121.831C121.817 415.168 121.383 418.514 119.115 421.16L118.247 420.572ZM131.242 414.692C131.242 416.75 132.74 418.85 134.518 419.62L133.93 420.46C132.502 419.83 131.284 418.43 130.71 416.75C130.15 418.528 128.918 420.068 127.518 420.768L126.902 419.928C128.638 419.088 130.15 416.792 130.15 414.692V413.096H127.294V412.2H134.126V413.096H131.242V414.692ZM135.834 423.12V410.968H136.898V423.12H135.834ZM152.302 416.652V417.52H148.55V420.684H153.618V421.58H142.502V420.684H147.486V417.52H143.902V411.948H152.19V412.816H144.994V416.652H152.302ZM165.718 420.656V421.552H154.602V420.656H159.586V418.024H155.918V411.808H156.982V414.02H163.282V411.808H164.346V418.024H160.65V420.656H165.718ZM156.982 417.156H163.282V414.888H156.982V417.156ZM174.317 422.14C172.259 422.126 170.313 420.908 170.313 417.268C170.313 413.95 171.909 411.962 174.373 411.976C176.375 411.962 177.747 413.222 177.957 414.86H175.913C175.759 414.16 175.185 413.726 174.373 413.74C173.043 413.726 172.329 414.944 172.329 416.876H172.413C172.875 416.008 173.855 415.49 174.961 415.476C176.725 415.49 178.055 416.834 178.041 418.696C178.055 420.698 176.543 422.14 174.317 422.14ZM172.525 418.752C172.539 419.718 173.281 420.516 174.289 420.516C175.311 420.516 176.053 419.746 176.053 418.752C176.053 417.758 175.325 416.988 174.317 416.988C173.309 416.988 172.539 417.786 172.525 418.752ZM183.132 422.14C180.948 422.14 179.394 420.936 179.352 419.228H181.424C181.466 419.942 182.18 420.432 183.132 420.432C184.126 420.432 184.826 419.886 184.812 419.088C184.826 418.29 184.112 417.716 182.936 417.716H182.04V416.204H182.936C183.93 416.19 184.602 415.658 184.588 414.86C184.602 414.118 184.028 413.6 183.16 413.6C182.278 413.6 181.55 414.09 181.536 414.86H179.548C179.59 413.152 181.13 411.962 183.16 411.976C185.218 411.962 186.59 413.194 186.576 414.748C186.59 415.868 185.82 416.652 184.7 416.848V416.932C186.17 417.1 186.968 417.982 186.968 419.228C186.968 420.922 185.358 422.14 183.132 422.14ZM188.391 422V414.58H190.323V415.868H190.407C190.715 415.014 191.471 414.482 192.479 414.468C193.501 414.482 194.257 415.014 194.495 415.868H194.579C194.873 415.028 195.727 414.482 196.819 414.468C198.191 414.482 199.143 415.392 199.143 417.016V422H197.127V417.408C197.127 416.554 196.623 416.148 195.951 416.148C195.195 416.148 194.747 416.68 194.747 417.464V422H192.787V417.352C192.787 416.624 192.325 416.148 191.639 416.148C190.953 416.148 190.421 416.708 190.407 417.548V422H188.391Z" fill="#888888"/>
<path d="M1.232 422L5.768 413.264V413.18H0.56V412.088H7.056V413.236L2.52 422H1.232ZM19.3166 417.38V418.276H14.3886V420.656H13.3246V418.276H8.20061V417.38H19.3166ZM9.62861 422.84V419.536H10.6926V421.944H18.0846V422.84H9.62861ZM9.68461 416.204V411.332H10.7486V412.9H16.7686V411.332H17.8606V416.204H9.68461ZM10.7486 415.336H16.7686V413.74H10.7486V415.336Z" fill="#666666"/>
<path d="M57 383L57 445" stroke="#666666" stroke-dasharray="1 3"/>
<path d="M78.784 378V376.516L82.312 373.24C83.25 372.358 83.74 371.812 83.74 371.028C83.74 370.146 83.082 369.6 82.172 369.6C81.248 369.6 80.632 370.188 80.632 371.14H78.672C78.672 369.208 80.114 367.962 82.2 367.976C84.314 367.962 85.728 369.166 85.728 370.888C85.728 372.022 85.182 372.946 83.124 374.78L81.64 376.236V376.32H85.868V378H78.784ZM87.6929 378L91.8649 369.852V369.796H87.0209V368.088H94.0209V369.824L89.8209 378H87.6929ZM94.4344 376.236V374.612L98.6344 368.088H101.21V374.584H102.442V376.236H101.21V378H99.2504V376.236H94.4344ZM96.5064 374.584H99.2784V370.356H99.1664L96.5064 374.528V374.584Z" fill="#396DE7"/>
<path d="M113.068 369.628C113.082 371.966 114.02 374.248 116.092 375.144L115.028 376.544C113.642 375.872 112.718 374.626 112.2 373.086C111.668 374.724 110.702 376.068 109.288 376.768L108.196 375.34C110.324 374.374 111.29 371.966 111.304 369.628V367.78H113.068V369.628ZM114.692 372.12V370.72H117.156V366.8H118.864V379.288H117.156V372.12H114.692ZM126.148 366.912C129.004 366.926 130.656 367.682 130.656 369.04C130.656 370.426 129.004 371.182 126.148 371.168C123.264 371.182 121.598 370.426 121.612 369.04C121.598 367.682 123.264 366.926 126.148 366.912ZM120.464 373.1V371.756H131.832V373.1H126.988V373.94H130.432V377.104H123.488V377.86H130.768V379.176H121.78V375.9H128.724V375.228H121.78V373.94H125.252V373.1H120.464ZM123.432 369.04C123.432 369.656 124.314 369.894 126.148 369.908C127.982 369.894 128.864 369.656 128.864 369.04C128.864 368.494 127.982 368.214 126.148 368.2C124.314 368.214 123.432 368.494 123.432 369.04ZM143.315 366.8V379.26H141.663V373.016H140.487V378.644H138.863V367.024H140.487V371.616H141.663V366.8H143.315ZM132.927 376.432V368.256H137.575V369.656H134.663V374.976C135.867 374.962 136.931 374.892 138.135 374.668L138.275 376.096C136.749 376.39 135.433 376.432 133.795 376.432H132.927ZM152.055 367.92V369.292H144.663V367.92H147.491V366.744H149.227V367.92H152.055ZM145.279 372.008C145.279 370.636 146.553 369.712 148.359 369.712C150.165 369.712 151.425 370.636 151.439 372.008C151.425 373.366 150.165 374.29 148.359 374.276C146.553 374.29 145.279 373.366 145.279 372.008ZM146.175 376.544V375.144H154.547V379.26H152.783V376.544H146.175ZM146.987 372.008C146.973 372.638 147.533 372.96 148.359 372.96C149.199 372.96 149.759 372.638 149.759 372.008C149.759 371.364 149.199 371.014 148.359 371C147.533 371.014 146.973 371.364 146.987 372.008ZM152.783 374.612V366.8H154.547V370.048H156.227V371.476H154.547V374.612H152.783ZM167.094 367.892V369.096C167.08 370.622 167.08 372.33 166.618 374.836L164.91 374.696C165.316 372.414 165.33 370.748 165.33 369.292H157.882V367.892H167.094ZM156.762 377.748V376.32H159.17V372.4H160.934V376.32H162.306V372.4H164.014V376.32H168.13V377.748H156.762ZM181.973 366.828V369.572H183.653V370.972H181.973V373.744H180.209V366.828H181.973ZM172.173 370.44C172.173 368.69 173.643 367.444 175.589 367.444C177.521 367.444 178.977 368.69 178.977 370.44C178.977 372.19 177.521 373.422 175.589 373.408C173.643 373.422 172.173 372.19 172.173 370.44ZM173.685 379.064V377.664H175.309V375.648H173.769V374.276H182.197V375.648H180.685V377.664H182.365V379.064H173.685ZM173.881 370.44C173.881 371.406 174.623 371.98 175.589 371.98C176.555 371.98 177.283 371.406 177.297 370.44C177.283 369.474 176.555 368.9 175.589 368.9C174.623 368.9 173.881 369.474 173.881 370.44ZM177.017 377.664H178.977V375.648H177.017V377.664ZM197.243 366.8V371.7H199.063V373.128H197.243V379.26H195.507V366.8H197.243ZM187.359 370.076V368.676H190.159V366.996H191.923V368.676H194.667V370.076H187.359ZM187.863 373.744C187.849 371.994 189.207 370.762 191.055 370.776C192.861 370.762 194.219 371.994 194.219 373.744C194.219 375.466 192.861 376.698 191.055 376.684C189.207 376.698 187.849 375.466 187.863 373.744ZM189.543 373.744C189.529 374.696 190.159 375.27 191.055 375.256C191.909 375.27 192.539 374.696 192.539 373.744C192.539 372.778 191.909 372.19 191.055 372.176C190.159 372.19 189.529 372.778 189.543 373.744ZM204.022 370.72C204.008 372.484 204.932 374.486 206.906 375.424L205.954 376.74C204.624 376.138 203.686 374.962 203.168 373.576C202.622 375.06 201.656 376.32 200.242 376.936L199.29 375.592C201.32 374.696 202.286 372.582 202.286 370.72V370.244H199.71V368.844H202.286V367.08H204.022V368.844H206.57V370.244H204.022V370.72ZM207.578 379.26V366.8H209.342V371.644H211.162V373.1H209.342V379.26H207.578Z" fill="#242424"/>
<circle cx="57" cy="373" r="10" fill="#396DE7"/>
<path d="M55.08 369.12V372.7H56.52V373.34H55.08V377.8H54.32V369.12H55.08ZM48.3 371.14V370.5H50.54V369.22H51.3V370.5H53.46V371.14H48.3ZM48.8 373.86C48.79 372.68 49.69 371.86 50.92 371.86C52.16 371.86 53.05 372.68 53.06 373.86C53.05 375.03 52.16 375.85 50.92 375.84C49.69 375.85 48.79 375.03 48.8 373.86ZM49.54 373.86C49.53 374.65 50.12 375.2 50.92 375.2C51.73 375.2 52.32 374.65 52.32 373.86C52.32 373.07 51.73 372.5 50.92 372.5C50.12 372.5 49.53 373.07 49.54 373.86ZM59.8826 371.94C59.8926 373.33 60.7926 374.76 62.0426 375.36L61.6026 375.96C60.6526 375.49 59.8926 374.54 59.5326 373.43C59.1526 374.63 58.3426 375.63 57.3626 376.1L56.9026 375.52C58.1926 374.92 59.1326 373.44 59.1426 371.94V371.24H57.1626V370.62H59.1426V369.28H59.9026V370.62H61.8626V371.24H59.8826V371.94ZM62.9426 377.8V369.12H63.7226V372.68H65.1626V373.34H63.7226V377.8H62.9426Z" fill="white"/>
<path d="M82.34 334.14C80.38 334.14 78.966 333.076 78.896 331.508H80.156C80.212 332.46 81.15 333.048 82.34 333.048C83.642 333.048 84.58 332.334 84.58 331.312C84.58 330.234 83.726 329.464 82.172 329.464H81.388V328.372H82.172C83.39 328.386 84.23 327.7 84.216 326.692C84.23 325.698 83.502 325.04 82.368 325.04C81.318 325.04 80.352 325.614 80.296 326.58H79.12C79.176 325.012 80.632 323.962 82.396 323.976C84.272 323.962 85.42 325.208 85.42 326.636C85.42 327.742 84.762 328.568 83.74 328.848V328.932C85.014 329.128 85.798 330.052 85.784 331.312C85.798 332.936 84.328 334.14 82.34 334.14ZM87.551 334V333.104L90.911 329.548C92.087 328.302 92.647 327.63 92.647 326.72C92.647 325.698 91.793 325.04 90.687 325.04C89.511 325.04 88.769 325.782 88.755 326.888H87.607C87.579 325.138 88.937 323.962 90.715 323.976C92.521 323.962 93.795 325.166 93.823 326.72C93.795 327.826 93.291 328.68 91.527 330.5L89.259 332.824V332.908H93.991V334H87.551ZM106.449 329.38V330.276H101.521V332.656H100.457V330.276H95.3334V329.38H106.449ZM96.7614 334.84V331.536H97.8254V333.944H105.217V334.84H96.7614ZM96.8174 328.204V323.332H97.8814V324.9H103.901V323.332H104.993V328.204H96.8174ZM97.8814 327.336H103.901V325.74H97.8814V327.336Z" fill="#FF8048"/>
<path d="M115.424 324.088V334H114.192V325.376H114.136L111.728 326.972V325.74L114.192 324.088H115.424ZM121.563 324.088V334H120.331V325.376H120.275L117.867 326.972V325.74L120.331 324.088H121.563ZM133.833 322.968V330.192H132.769V327.028H130.305V326.132H132.769V322.968H133.833ZM123.809 329.24C125.629 328.582 126.917 326.93 126.917 325.18V324.732H124.173V323.836H130.725V324.732H128.009V325.18C127.995 326.762 129.213 328.274 131.005 328.876L130.445 329.744C129.073 329.254 128.009 328.232 127.477 326.986C126.945 328.414 125.825 329.534 124.369 330.08L123.809 329.24ZM125.741 332.852C125.727 331.41 127.281 330.584 129.801 330.584C132.335 330.584 133.889 331.41 133.889 332.852C133.889 334.266 132.335 335.092 129.801 335.092C127.281 335.092 125.727 334.266 125.741 332.852ZM126.805 332.852C126.791 333.72 127.953 334.252 129.801 334.252C131.663 334.252 132.825 333.72 132.825 332.852C132.825 331.956 131.663 331.424 129.801 331.424C127.953 331.424 126.791 331.956 126.805 332.852ZM146.969 330.22V331.06H144.057V335.12H142.993V331.06H139.857V335.12H138.765V331.06H135.853V330.22H146.969ZM137.197 324.312V323.444H145.625V326.552H138.317V328.064H145.905V328.96H137.225V325.712H144.533V324.312H137.197ZM152.097 325.264C152.083 326.86 153.273 328.274 155.065 328.876L154.561 329.716C153.161 329.24 152.111 328.274 151.579 327.07C151.061 328.456 149.927 329.534 148.485 330.052L147.925 329.212C149.745 328.582 151.019 327.014 151.033 325.264V324.76H148.261V323.864H154.813V324.76H152.097V325.264ZM149.549 332.852C149.549 331.438 151.075 330.626 153.581 330.612C156.073 330.626 157.585 331.438 157.585 332.852C157.585 334.266 156.073 335.078 153.581 335.092C151.075 335.078 149.549 334.266 149.549 332.852ZM150.613 332.852C150.613 333.706 151.747 334.224 153.581 334.224C155.415 334.224 156.535 333.706 156.549 332.852C156.535 331.984 155.415 331.48 153.581 331.48C151.747 331.48 150.613 331.984 150.613 332.852ZM156.409 330.304V322.968H157.473V326.076H159.293V326.972H157.473V330.304H156.409Z" fill="#888888"/>
<path d="M57 295L57 363" stroke="#396DE7" stroke-width="2"/>
<path d="M78.784 290V288.516L82.312 285.24C83.25 284.358 83.74 283.812 83.74 283.028C83.74 282.146 83.082 281.6 82.172 281.6C81.248 281.6 80.632 282.188 80.632 283.14H78.672C78.672 281.208 80.114 279.962 82.2 279.976C84.314 279.962 85.728 281.166 85.728 282.888C85.728 284.022 85.182 284.946 83.124 286.78L81.64 288.236V288.32H85.868V290H78.784ZM87.6929 290L91.8649 281.852V281.796H87.0209V280.088H94.0209V281.824L89.8209 290H87.6929ZM94.4344 288.236V286.612L98.6344 280.088H101.21V286.584H102.442V288.236H101.21V290H99.2504V288.236H94.4344ZM96.5064 286.584H99.2784V282.356H99.1664L96.5064 286.528V286.584Z" fill="#396DE7"/>
<path d="M113.068 281.628C113.082 283.966 114.02 286.248 116.092 287.144L115.028 288.544C113.642 287.872 112.718 286.626 112.2 285.086C111.668 286.724 110.702 288.068 109.288 288.768L108.196 287.34C110.324 286.374 111.29 283.966 111.304 281.628V279.78H113.068V281.628ZM114.692 284.12V282.72H117.156V278.8H118.864V291.288H117.156V284.12H114.692ZM126.148 278.912C129.004 278.926 130.656 279.682 130.656 281.04C130.656 282.426 129.004 283.182 126.148 283.168C123.264 283.182 121.598 282.426 121.612 281.04C121.598 279.682 123.264 278.926 126.148 278.912ZM120.464 285.1V283.756H131.832V285.1H126.988V285.94H130.432V289.104H123.488V289.86H130.768V291.176H121.78V287.9H128.724V287.228H121.78V285.94H125.252V285.1H120.464ZM123.432 281.04C123.432 281.656 124.314 281.894 126.148 281.908C127.982 281.894 128.864 281.656 128.864 281.04C128.864 280.494 127.982 280.214 126.148 280.2C124.314 280.214 123.432 280.494 123.432 281.04ZM143.063 286.724V291.26H141.327V288.096H134.495V286.724H143.063ZM132.731 282.524C132.717 280.76 134.159 279.472 136.035 279.472C137.043 279.472 137.925 279.85 138.527 280.48H141.327V278.8H143.063V286.164H141.327V284.596H138.527C137.925 285.24 137.043 285.618 136.035 285.632C134.159 285.618 132.717 284.33 132.731 282.524ZM134.383 282.524C134.383 283.546 135.069 284.134 136.035 284.148C136.959 284.134 137.659 283.546 137.659 282.524C137.659 281.558 136.959 280.956 136.035 280.956C135.069 280.956 134.383 281.558 134.383 282.524ZM139.255 283.196H141.327V281.88H139.269C139.311 282.09 139.339 282.3 139.339 282.524C139.339 282.762 139.311 282.986 139.255 283.196ZM149.255 281.628C149.241 283.868 150.193 286.108 152.195 287.06L151.131 288.46C149.815 287.802 148.905 286.584 148.387 285.086C147.841 286.696 146.889 288.012 145.475 288.712L144.411 287.284C146.511 286.318 147.491 283.938 147.491 281.628V279.78H149.255V281.628ZM152.727 291.26V278.8H154.491V283.616H156.311V285.072H154.491V291.26H152.727ZM166.646 278.8V281.852H168.326V283.28H166.646V286.304H164.882V278.8H166.646ZM157.126 285.632V279.584H158.862V281.264H161.41V279.584H163.174V285.632H157.126ZM158.274 288.236V286.836H166.646V291.26H164.882V288.236H158.274ZM158.862 284.26H161.41V282.608H158.862V284.26ZM180.23 283.756V285.128H175.386V285.912H178.83V289.104H171.886V289.86H179.166V291.176H170.178V287.872H177.122V287.228H170.178V285.912H173.65V285.128H168.862V283.756H180.23ZM170.262 283.112V279.192H178.774V283.112H170.262ZM171.97 281.74H177.038V280.536H171.97V281.74ZM187.934 279.724V280.508C187.934 281.362 187.934 282.594 187.654 284.148L185.946 283.98C186.17 282.79 186.226 281.894 186.24 281.152H181.55V279.724H187.934ZM180.794 285.044C181.494 285.044 182.292 285.044 183.118 285.03V282.58H184.854V284.974C186.086 284.918 187.36 284.82 188.522 284.652L188.634 285.912C186.03 286.388 183.118 286.43 180.962 286.444L180.794 285.044ZM182.642 291.036V287.284H184.378V289.636H191.378V291.036H182.642ZM189.194 288.124V278.8H190.986V282.608H192.498V284.064H190.986V288.124H189.194ZM194.685 290.112C194.041 290.126 193.509 289.608 193.537 288.964C193.509 288.348 194.041 287.83 194.685 287.844C195.287 287.83 195.819 288.348 195.833 288.964C195.819 289.608 195.287 290.126 194.685 290.112ZM207.512 278.828V285.996H205.776V284.764H202.976V283.392H205.776V282.188H203.102C202.332 284.162 200.554 285.52 197.824 286.248L197.124 284.904C199.98 284.134 201.394 282.762 201.646 281.068H197.796V279.668H203.536C203.536 280.074 203.508 280.452 203.452 280.816H205.776V278.828H207.512ZM199.112 288.656C199.098 287.116 200.806 286.15 203.368 286.136C205.888 286.15 207.596 287.116 207.596 288.656C207.596 290.224 205.888 291.204 203.368 291.204C200.806 291.204 199.098 290.224 199.112 288.656ZM200.848 288.656C200.848 289.426 201.786 289.818 203.368 289.832C204.908 289.818 205.846 289.426 205.86 288.656C205.846 287.9 204.908 287.494 203.368 287.508C201.786 287.494 200.848 287.9 200.848 288.656ZM219.584 278.8V291.26H217.848V278.8H219.584ZM209.168 287.676C211.478 287.676 214.502 287.69 217.148 287.34L217.26 288.6C214.502 289.118 211.646 289.118 209.392 289.104L209.168 287.676ZM209.42 281.684V280.34H212.304V278.94H214.096V280.34H216.98V281.684H209.42ZM210.148 284.568C210.134 283.112 211.408 282.188 213.2 282.188C215.034 282.188 216.28 283.112 216.28 284.568C216.28 285.968 215.034 286.92 213.2 286.92C211.408 286.92 210.134 285.968 210.148 284.568ZM211.8 284.568C211.786 285.226 212.36 285.59 213.2 285.604C214.04 285.59 214.614 285.226 214.628 284.568C214.614 283.896 214.04 283.504 213.2 283.504C212.36 283.504 211.786 283.896 211.8 284.568ZM231.264 279.248V280.228C231.25 281.166 231.25 282.258 230.998 283.588H232.608V284.96H227.736V286.5C229.948 286.668 231.278 287.522 231.292 288.852C231.278 290.392 229.612 291.26 226.896 291.26C224.152 291.26 222.472 290.392 222.472 288.852C222.472 287.522 223.802 286.668 226.028 286.5V284.96H221.212V283.588H229.234C229.472 282.412 229.514 281.502 229.5 280.648H222.612V279.248H231.264ZM224.236 288.852C224.222 289.552 225.146 289.874 226.896 289.86C228.604 289.874 229.528 289.552 229.528 288.852C229.528 288.18 228.604 287.858 226.896 287.844C225.146 287.858 224.222 288.18 224.236 288.852ZM243.195 278.828V281.572H244.875V282.972H243.195V285.744H241.431V278.828H243.195ZM233.395 282.44C233.395 280.69 234.865 279.444 236.811 279.444C238.743 279.444 240.199 280.69 240.199 282.44C240.199 284.19 238.743 285.422 236.811 285.408C234.865 285.422 233.395 284.19 233.395 282.44ZM234.907 291.064V289.664H236.531V287.648H234.991V286.276H243.419V287.648H241.907V289.664H243.587V291.064H234.907ZM235.103 282.44C235.103 283.406 235.845 283.98 236.811 283.98C237.777 283.98 238.505 283.406 238.519 282.44C238.505 281.474 237.777 280.9 236.811 280.9C235.845 280.9 235.103 281.474 235.103 282.44ZM238.239 289.664H240.199V287.648H238.239V289.664ZM246.279 286.024C246.293 283.616 246.923 281.628 248.239 279.892H250.171C249.163 281.18 248.393 283.728 248.379 286.024C248.393 288.32 249.163 290.868 250.171 292.156H248.239C246.923 290.42 246.293 288.432 246.279 286.024ZM262.234 284.456V285.856H257.39V286.78C259.574 286.948 260.848 287.732 260.862 289.02C260.848 290.462 259.224 291.26 256.522 291.26C253.806 291.26 252.168 290.462 252.182 289.02C252.168 287.718 253.47 286.934 255.682 286.78V285.856H250.866V284.456H262.234ZM251.37 282.636C253.666 282.44 254.94 281.6 255.262 280.732H251.902V279.332H261.198V280.732H257.81C258.118 281.6 259.392 282.426 261.73 282.636L261.142 284.008C258.776 283.784 257.194 282.888 256.536 281.67C255.878 282.888 254.31 283.784 251.958 284.008L251.37 282.636ZM253.946 289.02C253.932 289.622 254.8 289.944 256.522 289.944C258.216 289.944 259.112 289.622 259.126 289.02C259.112 288.39 258.216 288.082 256.522 288.068C254.8 288.082 253.932 288.39 253.946 289.02ZM266.83 286.024C266.816 288.432 266.186 290.42 264.87 292.156H262.938C263.946 290.868 264.716 288.32 264.73 286.024C264.716 283.728 263.946 281.18 262.938 279.892H264.87C266.186 281.628 266.816 283.616 266.83 286.024ZM278.227 279.416C278.227 280.718 279.683 282.174 282.427 282.496L281.783 283.868C279.683 283.574 278.129 282.664 277.331 281.446C276.533 282.678 274.993 283.574 272.879 283.868L272.207 282.496C274.979 282.174 276.421 280.732 276.435 279.416V278.996H278.227V279.416ZM271.647 285.912V284.54H283.015V285.912H271.647ZM272.963 289.02C272.949 287.55 274.587 286.752 277.303 286.752C280.005 286.752 281.629 287.55 281.643 289.02C281.629 290.462 280.005 291.274 277.303 291.288C274.587 291.274 272.949 290.462 272.963 289.02ZM274.727 289.02C274.713 289.65 275.581 289.944 277.303 289.944C278.997 289.944 279.893 289.65 279.907 289.02C279.893 288.376 278.997 288.082 277.303 288.068C275.581 288.082 274.713 288.376 274.727 289.02ZM288.255 282.72C288.241 284.484 289.165 286.486 291.139 287.424L290.187 288.74C288.857 288.138 287.919 286.962 287.401 285.576C286.855 287.06 285.889 288.32 284.475 288.936L283.523 287.592C285.553 286.696 286.519 284.582 286.519 282.72V282.244H283.943V280.844H286.519V279.08H288.255V280.844H290.803V282.244H288.255V282.72ZM291.811 291.26V278.8H293.575V283.644H295.395V285.1H293.575V291.26H291.811Z" fill="#242424"/>
<path d="M4.34 334.14C2.38 334.14 0.966 333.076 0.896 331.508H2.156C2.212 332.46 3.15 333.048 4.34 333.048C5.642 333.048 6.58 332.334 6.58 331.312C6.58 330.234 5.726 329.464 4.172 329.464H3.388V328.372H4.172C5.39 328.386 6.23 327.7 6.216 326.692C6.23 325.698 5.502 325.04 4.368 325.04C3.318 325.04 2.352 325.614 2.296 326.58H1.12C1.176 325.012 2.632 323.962 4.396 323.976C6.272 323.962 7.42 325.208 7.42 326.636C7.42 327.742 6.762 328.568 5.74 328.848V328.932C7.014 329.128 7.798 330.052 7.784 331.312C7.798 332.936 6.328 334.14 4.34 334.14ZM12.771 334.14C10.993 334.14 9.64895 333.034 9.55095 331.508H10.755C10.853 332.39 11.707 333.048 12.771 333.048C14.073 333.048 14.997 332.11 15.011 330.864C14.997 329.576 14.031 328.638 12.687 328.624C11.861 328.61 11.217 328.876 10.839 329.52H9.66295L10.363 324.088H15.711V325.18H11.371L11.007 328.092H11.119C11.553 327.756 12.225 327.518 12.911 327.532C14.801 327.518 16.201 328.918 16.187 330.836C16.201 332.754 14.759 334.14 12.771 334.14ZM28.5588 329.38V330.276H23.6308V332.656H22.5668V330.276H17.4428V329.38H28.5588ZM18.8708 334.84V331.536H19.9348V333.944H27.3268V334.84H18.8708ZM18.9268 328.204V323.332H19.9908V324.9H26.0108V323.332H27.1028V328.204H18.9268ZM19.9908 327.336H26.0108V325.74H19.9908V327.336Z" fill="#666666"/>
<circle cx="57" cy="285" r="10" fill="#396DE7"/>
<g clip-path="url(#clip1_61_4670)">
<path d="M51.6667 287.667C51.6667 288.253 51.9267 288.78 52.3334 289.147V290.333C52.3334 290.7 52.6334 291 53 291H53.6667C54.0334 291 54.3334 290.7 54.3334 290.333V289.667H59.6667V290.333C59.6667 290.7 59.9667 291 60.3334 291H61C61.3667 291 61.6667 290.7 61.6667 290.333V289.147C62.0734 288.78 62.3334 288.253 62.3334 287.667V281C62.3334 278.667 59.9467 278.333 57 278.333C54.0534 278.333 51.6667 278.667 51.6667 281V287.667ZM54 288.333C53.4467 288.333 53 287.887 53 287.333C53 286.78 53.4467 286.333 54 286.333C54.5534 286.333 55 286.78 55 287.333C55 287.887 54.5534 288.333 54 288.333ZM60 288.333C59.4467 288.333 59 287.887 59 287.333C59 286.78 59.4467 286.333 60 286.333C60.5534 286.333 61 286.78 61 287.333C61 287.887 60.5534 288.333 60 288.333ZM61 284.333H53V281H61V284.333Z" fill="white"/>
</g>
<path d="M88.864 234.968V247.12H87.828V240.82H86.064V246.476H85.056V235.22H86.064V239.896H87.828V234.968H88.864ZM79.092 243.956V236.424H80.184V243.004C81.374 243.004 82.676 242.906 84.16 242.612L84.272 243.564C82.592 243.872 81.206 243.956 79.876 243.956H79.092ZM100.628 234.968V247.12H99.5636V234.968H100.628ZM91.2756 236.984V236.088H96.9316V240.4H92.3956V243.284C94.4256 243.284 96.2036 243.2 98.3876 242.836L98.4996 243.732C96.2596 244.096 94.4116 244.18 92.3116 244.18H91.3036V239.532H95.8396V236.984H91.2756ZM112.503 238.636V239.504H104.187V235.416H105.251V238.636H112.503ZM102.675 242.024V241.156H113.791V242.024H102.675ZM104.131 246.812V243.284H105.195V245.916H112.587V246.812H104.131ZM129.391 241.184V242.052H124.463V244.544H123.399V242.052H118.275V241.184H129.391ZM119.703 246.84V243.34H120.767V245.944H128.159V246.84H119.703ZM119.731 239.784V235.556H127.963V239.784H119.731ZM120.767 238.916H126.899V236.396H120.767V238.916ZM139.418 235.752C142.008 235.766 143.87 237.012 143.87 238.944C143.87 240.736 142.26 241.926 139.95 242.094V244.656H145.018V245.552H133.902V244.656H138.886V242.094C136.604 241.926 134.98 240.736 134.994 238.944C134.98 237.012 136.856 235.766 139.418 235.752ZM136.03 238.944C136.016 240.33 137.458 241.24 139.418 241.24C141.392 241.24 142.834 240.33 142.834 238.944C142.834 237.558 141.392 236.634 139.418 236.648C137.458 236.634 136.016 237.558 136.03 238.944ZM157.09 241.688V242.584H145.974V241.688H157.09ZM147.374 236.228V235.388H155.662V238.384H148.494V239.728H155.942V240.568H147.43V237.572H154.598V236.228H147.374ZM147.458 246.84V243.536H148.522V245.944H155.942V246.84H147.458ZM161.798 236.508C161.798 237.166 162.47 238.146 163.618 238.664C164.766 238.16 165.438 237.222 165.438 236.508V236.284H163.87V235.416H168.434V236.284H166.502V236.564C166.516 237.488 167.342 238.552 168.798 238.972L168.322 239.756C167.118 239.392 166.306 238.608 165.928 237.726C165.536 238.51 164.766 239.252 163.618 239.588C162.47 239.224 161.686 238.468 161.308 237.684C160.93 238.552 160.118 239.378 158.914 239.756L158.438 238.972C159.866 238.51 160.734 237.376 160.734 236.564V236.284H158.802V235.416H163.366V236.284H161.798V236.508ZM158.102 241.856V240.988H163.086V239.728H164.15V240.988H169.19V241.856H158.102ZM159.306 244.04V243.144H167.762V247.12H166.698V244.04H159.306Z" fill="#888888"/>
<path d="M0.924 246V245.104L4.284 241.548C5.46 240.302 6.02 239.63 6.02 238.72C6.02 237.698 5.166 237.04 4.06 237.04C2.884 237.04 2.142 237.782 2.128 238.888H0.98C0.952 237.138 2.31 235.962 4.088 235.976C5.894 235.962 7.168 237.166 7.196 238.72C7.168 239.826 6.664 240.68 4.9 242.5L2.632 244.824V244.908H7.364V246H0.924ZM19.8225 241.38V242.276H14.8945V244.656H13.8305V242.276H8.70647V241.38H19.8225ZM10.1345 246.84V243.536H11.1985V245.944H18.5905V246.84H10.1345ZM10.1905 240.204V235.332H11.2545V236.9H17.2745V235.332H18.3665V240.204H10.1905ZM11.2545 239.336H17.2745V237.74H11.2545V239.336Z" fill="#666666"/>
<path d="M57 207L57 275" stroke="#666666" stroke-dasharray="1 3"/>
<path d="M78.784 202V200.516L82.312 197.24C83.25 196.358 83.74 195.812 83.74 195.028C83.74 194.146 83.082 193.6 82.172 193.6C81.248 193.6 80.632 194.188 80.632 195.14H78.672C78.672 193.208 80.114 191.962 82.2 191.976C84.314 191.962 85.728 193.166 85.728 194.888C85.728 196.022 85.182 196.946 83.124 198.78L81.64 200.236V200.32H85.868V202H78.784ZM97.7449 192.396V193.796H87.4129V192.396H91.6969V190.94H93.4329V192.396H97.7449ZM86.9089 202V200.6H91.6969V199.158C89.5969 198.962 88.3089 198.094 88.3089 196.736C88.3089 195.224 89.9469 194.314 92.5649 194.328C95.1549 194.314 96.8209 195.224 96.8209 196.736C96.8209 198.094 95.5189 198.962 93.4329 199.158V200.6H98.3049V202H86.9089ZM90.1009 196.736C90.1009 197.478 90.9549 197.8 92.5649 197.8C94.1469 197.8 95.0149 197.478 95.0289 196.736C95.0149 196.022 94.1469 195.686 92.5649 195.672C90.9549 195.686 90.1009 196.022 90.1009 196.736ZM103.685 192.956C103.671 194.552 104.539 196.162 106.513 196.82L105.561 198.192C104.259 197.702 103.349 196.792 102.831 195.63C102.285 196.932 101.319 197.954 99.8765 198.472L98.9245 197.1C101.011 196.428 101.907 194.72 101.921 192.928V191.584H103.685V192.956ZM101.221 203.036V199.06H102.985V201.636H109.761V203.036H101.221ZM105.421 194.888V193.488H107.773V190.828H109.509V200.012H107.773V194.888H105.421Z" fill="#3CB44A"/>
<path d="M121.048 190.996C123.904 190.996 125.556 191.738 125.556 193.124C125.556 194.496 123.904 195.252 121.048 195.252C118.164 195.252 116.498 194.496 116.512 193.124C116.498 191.738 118.164 190.996 121.048 190.996ZM115.364 197.212V195.84H126.732V197.212H115.364ZM116.68 203.176V199.9H123.624V199.228H116.68V197.94H125.332V201.104H118.388V201.86H125.668V203.176H116.68ZM118.332 193.124C118.332 193.726 119.214 193.964 121.048 193.964C122.882 193.964 123.764 193.726 123.764 193.124C123.764 192.564 122.882 192.27 121.048 192.256C119.214 192.27 118.332 192.564 118.332 193.124ZM132.28 194.216C132.294 196.218 133.33 198.374 135.416 199.228L134.464 200.6C133.008 199.984 131.986 198.738 131.426 197.24C130.866 198.878 129.83 200.236 128.36 200.908L127.38 199.536C129.438 198.626 130.502 196.316 130.516 194.216V193.432H127.856V192.004H134.884V193.432H132.28V194.216ZM136.116 203.26V190.8H137.88V203.26H136.116ZM150.959 200.432V201.86H139.563V200.432H144.379V198.556H140.879V194.384H147.907V193.012H140.851V191.612H149.643V195.756H142.615V197.156H149.923V198.556H146.087V200.432H150.959ZM155.751 202.14C153.567 202.14 152.013 200.936 151.971 199.228H154.043C154.085 199.942 154.799 200.432 155.751 200.432C156.745 200.432 157.445 199.886 157.431 199.088C157.445 198.29 156.731 197.716 155.555 197.716H154.659V196.204H155.555C156.549 196.19 157.221 195.658 157.207 194.86C157.221 194.118 156.647 193.6 155.779 193.6C154.897 193.6 154.169 194.09 154.155 194.86H152.167C152.209 193.152 153.749 191.962 155.779 191.976C157.837 191.962 159.209 193.194 159.195 194.748C159.209 195.868 158.439 196.652 157.319 196.848V196.932C158.789 197.1 159.587 197.982 159.587 199.228C159.587 200.922 157.977 202.14 155.751 202.14ZM170.419 190.8V195.588H172.183V197.016H170.419V203.232H168.655V190.8H170.419ZM160.451 199.76C163.405 198.276 164.973 196.288 165.309 193.516H161.179V192.088H167.087C167.073 195.812 165.631 199.032 161.459 201.076L160.451 199.76ZM183.19 198.724V203.26H181.454V200.096H174.622V198.724H183.19ZM172.858 194.524C172.844 192.76 174.286 191.472 176.162 191.472C177.17 191.472 178.052 191.85 178.654 192.48H181.454V190.8H183.19V198.164H181.454V196.596H178.654C178.052 197.24 177.17 197.618 176.162 197.632C174.286 197.618 172.844 196.33 172.858 194.524ZM174.51 194.524C174.51 195.546 175.196 196.134 176.162 196.148C177.086 196.134 177.786 195.546 177.786 194.524C177.786 193.558 177.086 192.956 176.162 192.956C175.196 192.956 174.51 193.558 174.51 194.524ZM179.382 195.196H181.454V193.88H179.396C179.438 194.09 179.466 194.3 179.466 194.524C179.466 194.762 179.438 194.986 179.382 195.196ZM197.844 190.8V195.7H199.664V197.128H197.844V203.26H196.108V190.8H197.844ZM187.96 194.076V192.676H190.76V190.996H192.524V192.676H195.268V194.076H187.96ZM188.464 197.744C188.45 195.994 189.808 194.762 191.656 194.776C193.462 194.762 194.82 195.994 194.82 197.744C194.82 199.466 193.462 200.698 191.656 200.684C189.808 200.698 188.45 199.466 188.464 197.744ZM190.144 197.744C190.13 198.696 190.76 199.27 191.656 199.256C192.51 199.27 193.14 198.696 193.14 197.744C193.14 196.778 192.51 196.19 191.656 196.176C190.76 196.19 190.13 196.778 190.144 197.744ZM204.624 194.72C204.61 196.484 205.534 198.486 207.508 199.424L206.556 200.74C205.226 200.138 204.288 198.962 203.77 197.576C203.224 199.06 202.258 200.32 200.844 200.936L199.892 199.592C201.922 198.696 202.888 196.582 202.888 194.72V194.244H200.312V192.844H202.888V191.08H204.624V192.844H207.172V194.244H204.624V194.72ZM208.18 203.26V190.8H209.944V195.644H211.764V197.1H209.944V203.26H208.18Z" fill="#242424"/>
<circle cx="57" cy="197" r="10" fill="#3CB44A"/>
<path d="M55.08 193.12V196.7H56.52V197.34H55.08V201.8H54.32V193.12H55.08ZM48.3 195.14V194.5H50.54V193.22H51.3V194.5H53.46V195.14H48.3ZM48.8 197.86C48.79 196.68 49.69 195.86 50.92 195.86C52.16 195.86 53.05 196.68 53.06 197.86C53.05 199.03 52.16 199.85 50.92 199.84C49.69 199.85 48.79 199.03 48.8 197.86ZM49.54 197.86C49.53 198.65 50.12 199.2 50.92 199.2C51.73 199.2 52.32 198.65 52.32 197.86C52.32 197.07 51.73 196.5 50.92 196.5C50.12 196.5 49.53 197.07 49.54 197.86ZM59.8826 195.94C59.8926 197.33 60.7926 198.76 62.0426 199.36L61.6026 199.96C60.6526 199.49 59.8926 198.54 59.5326 197.43C59.1526 198.63 58.3426 199.63 57.3626 200.1L56.9026 199.52C58.1926 198.92 59.1326 197.44 59.1426 195.94V195.24H57.1626V194.62H59.1426V193.28H59.9026V194.62H61.8626V195.24H59.8826V195.94ZM62.9426 201.8V193.12H63.7226V196.68H65.1626V197.34H63.7226V201.8H62.9426Z" fill="white"/>
<path d="M82.424 148.088V158H81.192V149.376H81.136L78.728 150.972V149.74L81.192 148.088H82.424ZM85.0627 158V157.104L88.4227 153.548C89.5987 152.302 90.1587 151.63 90.1587 150.72C90.1587 149.698 89.3047 149.04 88.1987 149.04C87.0227 149.04 86.2807 149.782 86.2667 150.888H85.1187C85.0907 149.138 86.4487 147.962 88.2267 147.976C90.0327 147.962 91.3067 149.166 91.3347 150.72C91.3067 151.826 90.8027 152.68 89.0387 154.5L86.7707 156.824V156.908H91.5027V158H85.0627ZM103.961 153.38V154.276H99.0331V156.656H97.9691V154.276H92.8451V153.38H103.961ZM94.2731 158.84V155.536H95.3371V157.944H102.729V158.84H94.2731ZM94.3291 152.204V147.332H95.3931V148.9H101.413V147.332H102.505V152.204H94.3291ZM95.3931 151.336H101.413V149.74H95.3931V151.336Z" fill="#FF8048"/>
<path d="M113.676 148.872C113.662 150.608 114.894 152.134 116.7 152.736L116.084 153.576C114.74 153.072 113.69 152.078 113.158 150.804C112.64 152.26 111.534 153.394 110.064 153.94L109.476 153.072C111.352 152.414 112.598 150.79 112.612 148.9V147.668H113.676V148.872ZM111.464 156.824C111.45 155.354 113.004 154.514 115.524 154.5C118.058 154.514 119.612 155.354 119.612 156.824C119.612 158.266 118.058 159.078 115.524 159.092C113.004 159.078 111.45 158.266 111.464 156.824ZM112.528 156.824C112.514 157.692 113.676 158.224 115.524 158.224C117.386 158.224 118.548 157.692 118.548 156.824C118.548 155.9 117.386 155.354 115.524 155.368C113.676 155.354 112.514 155.9 112.528 156.824ZM115.776 150.44V149.572H118.492V146.968H119.556V154.164H118.492V150.44H115.776ZM127.68 148.088C127.694 149.796 129.934 151.28 132.132 151.588L131.684 152.456C129.794 152.148 127.932 151.098 127.148 149.614C126.364 151.112 124.502 152.148 122.612 152.456L122.164 151.588C124.362 151.28 126.588 149.824 126.588 148.088V147.388H127.68V148.088ZM121.604 154.696V153.8H132.664V154.696H127.624V159.12H126.588V154.696H121.604ZM134.543 153.828C134.543 151.392 135.201 149.362 136.391 147.64H137.427C136.503 148.928 135.761 151.532 135.775 153.828C135.761 156.138 136.503 158.742 137.427 160.016H136.391C135.201 158.294 134.543 156.264 134.543 153.828ZM148.821 146.968V159.12H147.785V152.82H146.021V158.476H145.013V147.22H146.021V151.896H147.785V146.968H148.821ZM139.049 155.956V148.424H140.141V155.004C141.331 155.004 142.633 154.906 144.117 154.612L144.229 155.564C142.549 155.872 141.163 155.956 139.833 155.956H139.049ZM154.705 149.236C154.705 150.944 155.937 152.54 157.701 153.184L157.113 154.024C155.783 153.492 154.719 152.442 154.187 151.112C153.683 152.582 152.577 153.744 151.149 154.304L150.561 153.436C152.381 152.778 153.641 151.084 153.641 149.208V147.696H154.705V149.236ZM152.773 158.84V155.032H153.837V157.944H160.893V158.84H152.773ZM156.833 150.72V149.824H159.549V146.968H160.613V156.068H159.549V150.72H156.833ZM165.572 153.828C165.572 156.264 164.914 158.294 163.724 160.016H162.688C163.612 158.728 164.354 156.124 164.34 153.828C164.354 151.518 163.612 148.914 162.688 147.64H163.724C164.914 149.362 165.572 151.392 165.572 153.828ZM177.722 146.968V154.668H176.714V151.168H175.062V154.22H174.082V147.192H175.062V150.272H176.714V146.968H177.722ZM167.334 149.292V148.424H169.938V147.052H171.002V148.424H173.578V149.292H167.334ZM167.866 152.008C167.866 150.734 168.93 149.922 170.47 149.936C172.01 149.922 173.074 150.734 173.074 152.008C173.074 153.268 172.01 154.08 170.47 154.08C168.93 154.08 167.866 153.268 167.866 152.008ZM168.818 152.008C168.832 152.764 169.49 153.268 170.47 153.268C171.436 153.268 172.108 152.764 172.094 152.008C172.108 151.238 171.436 150.734 170.47 150.72C169.49 150.734 168.832 151.238 168.818 152.008ZM169.63 156.992C169.616 155.62 171.142 154.864 173.718 154.864C176.266 154.864 177.792 155.62 177.778 156.992C177.792 158.322 176.266 159.078 173.718 159.092C171.142 159.078 169.616 158.322 169.63 156.992ZM170.694 156.992C170.68 157.776 171.814 158.252 173.718 158.252C175.594 158.252 176.714 157.776 176.714 156.992C176.714 156.152 175.594 155.69 173.718 155.704C171.814 155.69 170.68 156.152 170.694 156.992Z" fill="#888888"/>
<line x1="188.5" y1="148" x2="188.5" y2="158" stroke="#CCCCCC"/>
<path d="M200.76 150.216C200.76 152.428 202.174 154.64 203.952 155.452L203.308 156.32C201.922 155.606 200.774 154.164 200.228 152.428C199.696 154.248 198.562 155.802 197.176 156.544L196.476 155.676C198.268 154.794 199.668 152.456 199.696 150.216V148.004H200.76V150.216ZM202.636 151.98V151.112H205.492V146.968H206.556V159.12H205.492V151.98H202.636ZM219.72 156.684V157.58H208.604V156.684H213.616V153.884H214.652V156.684H219.72ZM209.22 153.464C211.558 153.1 213.588 151.672 213.588 149.768H209.64V148.9H213.616V147.22H214.652V148.9H218.656V149.768H214.68C214.68 151.672 216.71 153.1 219.048 153.464L218.628 154.304C216.696 153.968 214.918 152.988 214.134 151.462C213.364 152.988 211.586 153.968 209.64 154.304L209.22 153.464ZM230.755 154.78V159.12H229.691V155.648H222.579V154.78H230.755ZM220.899 150.552C220.871 148.858 222.215 147.64 224.035 147.668C225.099 147.654 225.995 148.074 226.555 148.76H229.691V146.968H230.755V154.108H229.691V152.372H226.555C225.995 153.058 225.099 153.478 224.035 153.464C222.215 153.478 220.871 152.274 220.899 150.552ZM221.907 150.552C221.907 151.728 222.803 152.554 224.035 152.568C225.239 152.554 226.149 151.728 226.135 150.552C226.149 149.404 225.239 148.564 224.035 148.564C222.803 148.564 221.907 149.404 221.907 150.552ZM227.031 149.628C227.115 149.908 227.171 150.23 227.171 150.552C227.171 150.874 227.129 151.196 227.031 151.476H229.691V149.628H227.031ZM241.903 154.584C244.395 154.598 245.907 155.424 245.907 156.852C245.907 158.266 244.395 159.092 241.903 159.092C239.397 159.092 237.871 158.266 237.871 156.852C237.871 155.424 239.397 154.598 241.903 154.584ZM236.807 153.324V147.724H237.871V149.572H241.399V147.724H242.463V153.324H236.807ZM237.871 152.456H241.399V150.44H237.871V152.456ZM238.935 156.852C238.935 157.706 240.069 158.238 241.903 158.224C243.737 158.238 244.857 157.706 244.871 156.852C244.857 155.97 243.737 155.452 241.903 155.452C240.069 155.452 238.935 155.97 238.935 156.852ZM244.731 154.276V146.968H245.795V150.02H247.615V150.944H245.795V154.276H244.731ZM254.534 148.032V149.096H257.39V146.968H258.454V155.844H257.39V152.596H254.534V153.688H248.962V148.032H254.534ZM250.026 152.82H253.498V148.9H250.026V152.82ZM250.614 158.84V155.032H251.678V157.944H258.734V158.84H250.614ZM254.534 151.7H257.39V149.992H254.534V151.7Z" fill="#888888"/>
<line x1="268.5" y1="148" x2="268.5" y2="158" stroke="#CCCCCC"/>
<path d="M286.22 146.968V151.7H287.872V152.624H286.22V159.12H285.156V146.968H286.22ZM276.756 156.18V148.088H277.652V151.224H279.192V148.088H280.116V156.18H276.756ZM277.652 155.256H279.192V152.092H277.652V155.256ZM280.788 156.18V148.088H281.684V151.224H283.196V148.088H284.092V156.18H280.788ZM281.684 155.256H283.196V152.092H281.684V155.256ZM299.692 153.688V154.584H288.576V153.688H299.692ZM289.976 148.228V147.388H298.264V150.384H291.096V151.728H298.544V152.568H290.032V149.572H297.2V148.228H289.976ZM290.06 158.84V155.536H291.124V157.944H298.544V158.84H290.06ZM310.167 146.968V151.224H311.987V152.12H310.167V156.46H309.103V146.968H310.167ZM300.647 154.192C301.613 154.192 302.733 154.178 303.923 154.122V153.212C302.509 153.072 301.599 152.386 301.599 151.364C301.599 150.202 302.747 149.488 304.455 149.488C306.177 149.488 307.297 150.202 307.311 151.364C307.297 152.386 306.415 153.058 305.015 153.212V154.08C306.149 154.01 307.297 153.912 308.347 153.744L308.431 154.528C305.841 155.004 302.887 155.046 300.759 155.06L300.647 154.192ZM300.955 148.956V148.144H303.923V146.912H305.015V148.144H307.983V148.956H300.955ZM302.467 158.84V155.816H303.531V157.944H310.615V158.84H302.467ZM302.635 151.364C302.621 152.036 303.335 152.456 304.455 152.456C305.575 152.456 306.275 152.036 306.275 151.364C306.275 150.678 305.575 150.258 304.455 150.244C303.335 150.258 302.621 150.678 302.635 151.364ZM318.879 147.724C318.879 149.264 321.091 150.65 323.219 150.944L322.799 151.784C320.951 151.49 319.117 150.51 318.333 149.138C317.577 150.524 315.743 151.49 313.867 151.784L313.419 150.944C315.589 150.65 317.787 149.306 317.787 147.724V147.164H318.879V147.724ZM312.803 153.632V152.764H323.863V153.632H312.803ZM314.119 156.936C314.133 155.55 315.687 154.78 318.319 154.78C320.937 154.78 322.505 155.55 322.519 156.936C322.505 158.322 320.937 159.092 318.319 159.092C315.687 159.092 314.133 158.322 314.119 156.936ZM315.211 156.936C315.211 157.776 316.373 158.252 318.319 158.252C320.251 158.252 321.427 157.776 321.427 156.936C321.427 156.11 320.251 155.62 318.319 155.62C316.373 155.62 315.211 156.11 315.211 156.936ZM332.322 148.088V158H331.09V149.376H331.034L328.626 150.972V149.74L331.09 148.088H332.322ZM339.245 153.212V154.304H334.905V153.212H339.245ZM344.531 148.088V158H343.299V149.376H343.243L340.835 150.972V149.74L343.299 148.088H344.531Z" fill="#888888"/>
<path d="M57 119L57 187" stroke="#3CB44A" stroke-width="2"/>
<path d="M0.924 158V157.104L4.284 153.548C5.46 152.302 6.02 151.63 6.02 150.72C6.02 149.698 5.166 149.04 4.06 149.04C2.884 149.04 2.142 149.782 2.128 150.888H0.98C0.952 149.138 2.31 147.962 4.088 147.976C5.894 147.962 7.168 149.166 7.196 150.72C7.168 151.826 6.664 152.68 4.9 154.5L2.632 156.824V156.908H7.364V158H0.924ZM12.4585 147.976C14.1525 147.99 16.0565 149.012 16.0425 152.652C16.0565 156.166 14.6145 158.14 12.2905 158.14C10.5545 158.14 9.32247 157.076 9.07047 155.508H10.3025C10.5125 156.39 11.1845 157.048 12.2905 157.048C13.9005 157.048 14.8945 155.648 14.8945 153.24H14.7545C14.1945 154.066 13.2845 154.556 12.2345 154.556C10.4705 154.556 9.00047 153.198 8.98647 151.28C9.00047 149.446 10.3445 147.948 12.4585 147.976ZM10.1905 151.28C10.1905 152.498 11.1145 153.478 12.4305 153.464C13.7045 153.478 14.7125 152.414 14.6985 151.252C14.7125 150.104 13.7605 149.04 12.4585 149.04C11.1565 149.04 10.1905 150.048 10.1905 151.28ZM28.4221 153.38V154.276H23.4941V156.656H22.4301V154.276H17.3061V153.38H28.4221ZM18.7341 158.84V155.536H19.7981V157.944H27.1901V158.84H18.7341ZM18.7901 152.204V147.332H19.8541V148.9H25.8741V147.332H26.9661V152.204H18.7901ZM19.8541 151.336H25.8741V149.74H19.8541V151.336Z" fill="#666666"/>
<path d="M78.784 114V112.516L82.312 109.24C83.25 108.358 83.74 107.812 83.74 107.028C83.74 106.146 83.082 105.6 82.172 105.6C81.248 105.6 80.632 106.188 80.632 107.14H78.672C78.672 105.208 80.114 103.962 82.2 103.976C84.314 103.962 85.728 105.166 85.728 106.888C85.728 108.022 85.182 108.946 83.124 110.78L81.64 112.236V112.32H85.868V114H78.784ZM97.7449 104.396V105.796H87.4129V104.396H91.6969V102.94H93.4329V104.396H97.7449ZM86.9089 114V112.6H91.6969V111.158C89.5969 110.962 88.3089 110.094 88.3089 108.736C88.3089 107.224 89.9469 106.314 92.5649 106.328C95.1549 106.314 96.8209 107.224 96.8209 108.736C96.8209 110.094 95.5189 110.962 93.4329 111.158V112.6H98.3049V114H86.9089ZM90.1009 108.736C90.1009 109.478 90.9549 109.8 92.5649 109.8C94.1469 109.8 95.0149 109.478 95.0289 108.736C95.0149 108.022 94.1469 107.686 92.5649 107.672C90.9549 107.686 90.1009 108.022 90.1009 108.736ZM103.685 104.956C103.671 106.552 104.539 108.162 106.513 108.82L105.561 110.192C104.259 109.702 103.349 108.792 102.831 107.63C102.285 108.932 101.319 109.954 99.8765 110.472L98.9245 109.1C101.011 108.428 101.907 106.72 101.921 104.928V103.584H103.685V104.956ZM101.221 115.036V111.06H102.985V113.636H109.761V115.036H101.221ZM105.421 106.888V105.488H107.773V102.828H109.509V112.012H107.773V106.888H105.421Z" fill="#3CB44A"/>
<path d="M125.248 102.8V105.74H126.928V107.168H125.248V110.052H123.484V102.8H125.248ZM115.28 108.904C118.024 108.162 119.592 106.762 119.858 105.04H115.868V103.64H121.776C121.776 106.958 119.69 109.282 115.98 110.304L115.28 108.904ZM116.96 112.712C116.946 111.172 118.654 110.178 121.188 110.192C123.708 110.178 125.374 111.172 125.388 112.712C125.374 114.294 123.708 115.274 121.188 115.26C118.654 115.274 116.946 114.294 116.96 112.712ZM118.696 112.712C118.682 113.482 119.62 113.916 121.188 113.916C122.728 113.916 123.652 113.482 123.652 112.712C123.652 111.956 122.728 111.536 121.188 111.536C119.62 111.536 118.682 111.956 118.696 112.712ZM137.348 102.828V105.46H139.028V106.888H137.348V109.828H135.584V102.828H137.348ZM127.968 109.184V103.416H129.732V107.742C131.244 107.714 132.854 107.56 134.576 107.224L134.772 108.652C132.728 109.058 130.796 109.17 129.032 109.184H127.968ZM129.2 115.12V110.416H137.348V115.12H129.2ZM130.908 113.748H135.64V111.76H130.908V113.748ZM150.063 110.724V115.26H148.327V112.096H141.495V110.724H150.063ZM139.731 106.524C139.717 104.76 141.159 103.472 143.035 103.472C144.043 103.472 144.925 103.85 145.527 104.48H148.327V102.8H150.063V110.164H148.327V108.596H145.527C144.925 109.24 144.043 109.618 143.035 109.632C141.159 109.618 139.717 108.33 139.731 106.524ZM141.383 106.524C141.383 107.546 142.069 108.134 143.035 108.148C143.959 108.134 144.659 107.546 144.659 106.524C144.659 105.558 143.959 104.956 143.035 104.956C142.069 104.956 141.383 105.558 141.383 106.524ZM146.255 107.196H148.327V105.88H146.269C146.311 106.09 146.339 106.3 146.339 106.524C146.339 106.762 146.311 106.986 146.255 107.196ZM161.469 103.416C161.469 104.718 162.925 106.174 165.669 106.496L165.025 107.868C162.925 107.574 161.371 106.664 160.573 105.446C159.775 106.678 158.235 107.574 156.121 107.868L155.449 106.496C158.221 106.174 159.663 104.732 159.677 103.416V102.996H161.469V103.416ZM154.889 109.912V108.54H166.257V109.912H154.889ZM156.205 113.02C156.191 111.55 157.829 110.752 160.545 110.752C163.247 110.752 164.871 111.55 164.885 113.02C164.871 114.462 163.247 115.274 160.545 115.288C157.829 115.274 156.191 114.462 156.205 113.02ZM157.969 113.02C157.955 113.65 158.823 113.944 160.545 113.944C162.239 113.944 163.135 113.65 163.149 113.02C163.135 112.376 162.239 112.082 160.545 112.068C158.823 112.082 157.955 112.376 157.969 113.02ZM171.497 106.72C171.483 108.484 172.407 110.486 174.381 111.424L173.429 112.74C172.099 112.138 171.161 110.962 170.643 109.576C170.097 111.06 169.131 112.32 167.717 112.936L166.765 111.592C168.795 110.696 169.761 108.582 169.761 106.72V106.244H167.185V104.844H169.761V103.08H171.497V104.844H174.045V106.244H171.497V106.72ZM175.053 115.26V102.8H176.817V107.644H178.637V109.1H176.817V115.26H175.053Z" fill="#242424"/>
<circle cx="57" cy="109" r="10" fill="#3CB44A"/>
<g clip-path="url(#clip2_61_4670)">
<path d="M57 102.333C54.0534 102.333 51.6667 102.667 51.6667 105V111.333C51.6667 112.62 52.7134 113.667 54 113.667L53 114.667V115H61V114.667L60 113.667C61.2867 113.667 62.3334 112.62 62.3334 111.333V105C62.3334 102.667 59.9467 102.333 57 102.333ZM54 112.333C53.4467 112.333 53 111.887 53 111.333C53 110.78 53.4467 110.333 54 110.333C54.5534 110.333 55 110.78 55 111.333C55 111.887 54.5534 112.333 54 112.333ZM56.3334 108.333H53V105H56.3334V108.333ZM60 112.333C59.4467 112.333 59 111.887 59 111.333C59 110.78 59.4467 110.333 60 110.333C60.5534 110.333 61 110.78 61 111.333C61 111.887 60.5534 112.333 60 112.333ZM61 108.333H57.6667V105H61V108.333Z" fill="white"/>
</g>
<path d="M87.996 58.968V62.132H89.816V63H87.996V66.248H86.932V58.968H87.996ZM78.504 65.408C81.43 64.54 83.306 62.86 83.516 60.76H79.036V59.864H84.692C84.678 62.958 82.494 65.226 78.952 66.276L78.504 65.408ZM80.184 68.74C80.17 67.27 81.738 66.388 84.16 66.388C86.596 66.388 88.136 67.27 88.136 68.74C88.136 70.21 86.596 71.078 84.16 71.092C81.738 71.078 80.17 70.21 80.184 68.74ZM81.248 68.74C81.234 69.636 82.368 70.224 84.16 70.224C85.938 70.224 87.086 69.636 87.1 68.74C87.086 67.816 85.938 67.242 84.16 67.256C82.368 67.242 81.234 67.816 81.248 68.74ZM100.096 58.968V61.74H101.944V62.664H100.096V65.828H99.0316V58.968H100.096ZM91.1916 64.904V59.584H92.2556V64.008C93.9916 63.994 95.7836 63.84 97.7436 63.448L97.8836 64.344C95.8116 64.764 93.9776 64.89 92.1436 64.904H91.1916ZM92.3956 70.924V66.5H100.096V70.924H92.3956ZM93.4316 70.056H99.0596V67.34H93.4316V70.056ZM112.755 66.78V71.12H111.691V67.648H104.579V66.78H112.755ZM102.899 62.552C102.871 60.858 104.215 59.64 106.035 59.668C107.099 59.654 107.995 60.074 108.555 60.76H111.691V58.968H112.755V66.108H111.691V64.372H108.555C107.995 65.058 107.099 65.478 106.035 65.464C104.215 65.478 102.871 64.274 102.899 62.552ZM103.907 62.552C103.907 63.728 104.803 64.554 106.035 64.568C107.239 64.554 108.149 63.728 108.135 62.552C108.149 61.404 107.239 60.564 106.035 60.564C104.803 60.564 103.907 61.404 103.907 62.552ZM109.031 61.628C109.115 61.908 109.171 62.23 109.171 62.552C109.171 62.874 109.129 63.196 109.031 63.476H111.691V61.628H109.031ZM122.839 60.088V70H120.795V62.048H120.711L118.443 63.476V61.656L120.907 60.088H122.839ZM134.904 58.968V67.956H133.84V63.28H130.984V65.884H125.44V59.78H126.532V61.936H129.92V59.78H130.984V62.384H133.84V58.968H134.904ZM126.532 64.988H129.92V62.776H126.532V64.988ZM127.064 70.84V67.088H128.128V69.944H135.184V70.84H127.064ZM151.511 64.372V65.184H146.499V66.332H150.083V68.964H142.859V70.14H150.447V70.98H141.823V68.208H149.047V67.144H141.795V66.332H145.435V65.184H140.451V64.372H151.511ZM141.039 63C143.265 62.846 145.169 62.09 145.365 60.872H141.571V60.032H145.435V58.884H146.499V60.032H150.391V60.872H146.569C146.779 62.09 148.683 62.846 150.923 63L150.587 63.812C148.543 63.644 146.723 63.014 145.981 61.852C145.225 63.014 143.391 63.644 141.347 63.812L141.039 63ZM162.155 59.752V60.816C162.155 61.95 162.155 63.224 161.805 64.96H163.611V65.856H158.599V71.12H157.507V65.856H152.551V64.96H160.713C161.091 63.224 161.091 61.95 161.091 60.816V60.648H153.923V59.752H162.155ZM174.254 58.968V63.98H176.102V64.876H174.254V71.12H173.19V58.968H174.254ZM164.594 67.76C166.428 65.87 167.17 63.602 167.31 61.18H164.986V60.284H168.318C168.318 63.168 167.66 66.024 165.462 68.348L164.594 67.76ZM168.094 68.572C169.984 66.416 170.558 63.728 170.656 61.18H168.71V60.284H171.678C171.664 63.168 171.23 66.514 168.962 69.16L168.094 68.572ZM181.09 62.692C181.09 64.75 182.588 66.85 184.366 67.62L183.778 68.46C182.35 67.83 181.132 66.43 180.558 64.75C179.998 66.528 178.766 68.068 177.366 68.768L176.75 67.928C178.486 67.088 179.998 64.792 179.998 62.692V61.096H177.142V60.2H183.974V61.096H181.09V62.692ZM185.682 71.12V58.968H186.746V71.12H185.682ZM202.15 64.652V65.52H198.398V68.684H203.466V69.58H192.35V68.684H197.334V65.52H193.75V59.948H202.038V60.816H194.842V64.652H202.15ZM215.565 68.656V69.552H204.449V68.656H209.433V66.024H205.765V59.808H206.829V62.02H213.129V59.808H214.193V66.024H210.497V68.656H215.565ZM206.829 65.156H213.129V62.888H206.829V65.156ZM224.165 70.14C222.107 70.126 220.161 68.908 220.161 65.268C220.161 61.95 221.757 59.962 224.221 59.976C226.223 59.962 227.595 61.222 227.805 62.86H225.761C225.607 62.16 225.033 61.726 224.221 61.74C222.891 61.726 222.177 62.944 222.177 64.876H222.261C222.723 64.008 223.703 63.49 224.809 63.476C226.573 63.49 227.903 64.834 227.889 66.696C227.903 68.698 226.391 70.14 224.165 70.14ZM222.373 66.752C222.387 67.718 223.129 68.516 224.137 68.516C225.159 68.516 225.901 67.746 225.901 66.752C225.901 65.758 225.173 64.988 224.165 64.988C223.157 64.988 222.387 65.786 222.373 66.752ZM229.675 70L233.847 61.852V61.796H229.003V60.088H236.003V61.824L231.803 70H229.675ZM240.813 70.14C238.629 70.14 237.075 68.936 237.033 67.228H239.105C239.147 67.942 239.861 68.432 240.813 68.432C241.807 68.432 242.507 67.886 242.493 67.088C242.507 66.29 241.793 65.716 240.617 65.716H239.721V64.204H240.617C241.611 64.19 242.283 63.658 242.269 62.86C242.283 62.118 241.709 61.6 240.841 61.6C239.959 61.6 239.231 62.09 239.217 62.86H237.229C237.271 61.152 238.811 59.962 240.841 59.976C242.899 59.962 244.271 61.194 244.257 62.748C244.271 63.868 243.501 64.652 242.381 64.848V64.932C243.851 65.1 244.649 65.982 244.649 67.228C244.649 68.922 243.039 70.14 240.813 70.14ZM246.073 70V62.58H248.005V63.868H248.089C248.397 63.014 249.153 62.482 250.161 62.468C251.183 62.482 251.939 63.014 252.177 63.868H252.261C252.555 63.028 253.409 62.482 254.501 62.468C255.873 62.482 256.825 63.392 256.825 65.016V70H254.809V65.408C254.809 64.554 254.305 64.148 253.633 64.148C252.877 64.148 252.429 64.68 252.429 65.464V70H250.469V65.352C250.469 64.624 250.007 64.148 249.321 64.148C248.635 64.148 248.103 64.708 248.089 65.548V70H246.073Z" fill="#888888"/>
<path d="M4.368 70.14C2.66 70.112 0.77 69.104 0.756 65.436C0.77 61.922 2.198 59.962 4.536 59.976C6.272 59.962 7.49 61.04 7.728 62.58H6.524C6.3 61.712 5.628 61.054 4.536 61.068C2.898 61.054 1.918 62.454 1.932 64.848H2.044C2.618 64.008 3.528 63.518 4.592 63.532C6.356 63.518 7.826 64.89 7.812 66.808C7.826 68.67 6.454 70.154 4.368 70.14ZM2.1 66.836C2.1 67.984 3.052 69.048 4.368 69.048C5.656 69.048 6.622 68.04 6.636 66.808C6.622 65.604 5.698 64.61 4.396 64.596C3.108 64.61 2.114 65.66 2.1 66.836ZM20.1916 65.38V66.276H15.2636V68.656H14.1996V66.276H9.07561V65.38H20.1916ZM10.5036 70.84V67.536H11.5676V69.944H18.9596V70.84H10.5036ZM10.5596 64.204V59.332H11.6236V60.9H17.6436V59.332H18.7356V64.204H10.5596ZM11.6236 63.336H17.6436V61.74H11.6236V63.336Z" fill="#666666"/>
<path d="M57 36L57 99" stroke="#666666" stroke-dasharray="1 3"/>
<path d="M4.62 26.14C2.142 26.14 0.644 24.292 0.644 21.044C0.644 17.81 2.156 15.962 4.62 15.976C7.084 15.962 8.596 17.824 8.596 21.044C8.596 24.306 7.098 26.14 4.62 26.14ZM2.744 21.044C2.73 23.34 3.472 24.432 4.62 24.432C5.768 24.432 6.51 23.34 6.496 21.044C6.496 18.79 5.768 17.656 4.62 17.656C3.486 17.656 2.744 18.79 2.744 21.044ZM13.8622 26.14C11.3842 26.14 9.88619 24.292 9.88619 21.044C9.88619 17.81 11.3982 15.962 13.8622 15.976C16.3262 15.962 17.8382 17.824 17.8382 21.044C17.8382 24.306 16.3402 26.14 13.8622 26.14ZM11.9862 21.044C11.9722 23.34 12.7142 24.432 13.8622 24.432C15.0102 24.432 15.7522 23.34 15.7382 21.044C15.7382 18.79 15.0102 17.656 13.8622 17.656C12.7282 17.656 11.9862 18.79 11.9862 21.044ZM20.4724 24.824C19.8284 24.838 19.2964 24.32 19.3244 23.676C19.2964 23.06 19.8284 22.542 20.4724 22.556C21.0744 22.542 21.6064 23.06 21.6204 23.676C21.6064 24.32 21.0744 24.838 20.4724 24.824ZM19.3244 18.832C19.2964 18.216 19.8284 17.698 20.4724 17.712C21.0744 17.698 21.6064 18.216 21.6204 18.832C21.6064 19.476 21.0744 19.994 20.4724 19.98C19.8284 19.994 19.2964 19.476 19.3244 18.832ZM27.4755 16.088V26H25.4315V18.048H25.3475L23.0795 19.476V17.656L25.5435 16.088H27.4755ZM34.0244 16.088V26H31.9804V18.048H31.8964L29.6284 19.476V17.656L32.0924 16.088H34.0244Z" fill="#666666"/>
<path d="M83.068 17.628C83.082 19.966 84.02 22.248 86.092 23.144L85.028 24.544C83.642 23.872 82.718 22.626 82.2 21.086C81.668 22.724 80.702 24.068 79.288 24.768L78.196 23.34C80.324 22.374 81.29 19.966 81.304 17.628V15.78H83.068V17.628ZM84.692 20.12V18.72H87.156V14.8H88.864V27.288H87.156V20.12H84.692ZM96.1476 14.912C99.0036 14.926 100.656 15.682 100.656 17.04C100.656 18.426 99.0036 19.182 96.1476 19.168C93.2636 19.182 91.5976 18.426 91.6116 17.04C91.5976 15.682 93.2636 14.926 96.1476 14.912ZM90.4636 21.1V19.756H101.832V21.1H96.9876V21.94H100.432V25.104H93.4876V25.86H100.768V27.176H91.7796V23.9H98.7236V23.228H91.7796V21.94H95.2516V21.1H90.4636ZM93.4316 17.04C93.4316 17.656 94.3136 17.894 96.1476 17.908C97.9816 17.894 98.8636 17.656 98.8636 17.04C98.8636 16.494 97.9816 16.214 96.1476 16.2C94.3136 16.214 93.4316 16.494 93.4316 17.04ZM115.674 14.8V17.74H117.354V19.168H115.674V22.052H113.91V14.8H115.674ZM105.706 20.904C108.45 20.162 110.018 18.762 110.284 17.04H106.294V15.64H112.202C112.202 18.958 110.116 21.282 106.406 22.304L105.706 20.904ZM107.386 24.712C107.372 23.172 109.08 22.178 111.614 22.192C114.134 22.178 115.8 23.172 115.814 24.712C115.8 26.294 114.134 27.274 111.614 27.26C109.08 27.274 107.372 26.294 107.386 24.712ZM109.122 24.712C109.108 25.482 110.046 25.916 111.614 25.916C113.154 25.916 114.078 25.482 114.078 24.712C114.078 23.956 113.154 23.536 111.614 23.536C110.046 23.536 109.108 23.956 109.122 24.712ZM127.773 14.828V17.46H129.453V18.888H127.773V21.828H126.009V14.828H127.773ZM118.393 21.184V15.416H120.157V19.742C121.669 19.714 123.279 19.56 125.001 19.224L125.197 20.652C123.153 21.058 121.221 21.17 119.457 21.184H118.393ZM119.625 27.12V22.416H127.773V27.12H119.625ZM121.333 25.748H126.065V23.76H121.333V25.748ZM140.013 15.556V16.648C140.013 17.824 140.013 19.098 139.691 20.848H141.357V22.248H136.485V27.26H134.749V22.248H129.989V20.848H137.941C138.249 19.238 138.277 18.006 138.277 16.928H131.305V15.556H140.013ZM155.451 20.372V21.772H151.839V24.432H156.711V25.832H145.315V24.432H150.131V21.772H146.659V15.696H155.367V17.068H148.423V20.372H155.451ZM162.007 16.956C162.007 18.538 162.903 20.092 164.919 20.736L163.995 22.108C162.637 21.646 161.713 20.75 161.167 19.616C160.621 20.862 159.627 21.842 158.199 22.332L157.219 20.96C159.333 20.302 160.257 18.622 160.271 16.928V15.584H162.007V16.956ZM159.207 27.036V23.032H160.999V25.636H167.747V27.036H159.207ZM165.535 23.928V14.828H167.299V18.412H168.979V19.896H167.299V23.928H165.535ZM180.266 14.8V27.26H178.614V21.016H177.438V26.644H175.814V15.024H177.438V19.616H178.614V14.8H180.266ZM169.878 24.432V16.256H174.526V17.656H171.614V22.976C172.818 22.962 173.882 22.892 175.086 22.668L175.226 24.096C173.7 24.39 172.384 24.432 170.746 24.432H169.878ZM193.01 24.432V25.86H181.614V24.432H186.43V22.556H182.93V18.384H189.958V17.012H182.902V15.612H191.694V19.756H184.666V21.156H191.974V22.556H188.138V24.432H193.01ZM198.39 16.088V26H196.346V18.048H196.262L193.994 19.476V17.656L196.458 16.088H198.39ZM204.322 26.14C202.25 26.14 200.738 24.922 200.71 23.228H202.698C202.74 23.984 203.454 24.516 204.322 24.516C205.344 24.516 206.072 23.788 206.058 22.752C206.072 21.716 205.33 20.974 204.294 20.988C203.538 20.974 203.02 21.254 202.726 21.8H200.878L201.41 16.088H207.486V17.796H203.09L202.838 20.288H202.894C203.272 19.798 204.014 19.448 204.882 19.448C206.702 19.448 208.06 20.806 208.046 22.696C208.06 24.712 206.534 26.14 204.322 26.14ZM219.469 14.8V21.072H217.733V14.8H219.469ZM209.249 19.924C212.315 19.364 213.575 18.174 213.757 16.676H209.921V15.276H215.689C215.689 18.692 213.785 20.54 209.837 21.324L209.249 19.924ZM211.125 22.92V21.576H219.469V24.936H212.917V25.776H219.805V27.148H211.153V23.676H217.705V22.92H211.125ZM229.056 16.088V26H227.012V18.048H226.928L224.66 19.476V17.656L227.124 16.088H229.056ZM235.604 16.088V26H233.56V18.048H233.476L231.208 19.476V17.656L233.672 16.088H235.604Z" fill="#242424"/>
<g clip-path="url(#clip3_61_4670)">
<path d="M57 5C50.2275 5 44.75 10.4882 44.75 17.2739C44.75 26.4793 57 37 57 37C57 37 69.25 26.4793 69.25 17.2739C69.25 10.4882 63.7725 5 57 5Z" fill="#AAAAAA"/>
</g>
<path d="M56.6174 16.98V17.56H53.0374V18.38H55.5974V20.26H50.4374V21.1H55.8574V21.7H49.6974V19.72H54.8574V18.96H49.6774V18.38H52.2774V17.56H48.7174V16.98H56.6174ZM49.1374 16C50.7274 15.89 52.0874 15.35 52.2274 14.48H49.5174V13.88H52.2774V13.06H53.0374V13.88H55.8174V14.48H53.0874C53.2374 15.35 54.5974 15.89 56.1974 16L55.9574 16.58C54.4974 16.46 53.1974 16.01 52.6674 15.18C52.1274 16.01 50.8174 16.46 49.3574 16.58L49.1374 16ZM58.48 13.48V14.72H61V13.48H61.76V17.26H57.72V13.48H58.48ZM58.48 16.64H61V15.34H58.48V16.64ZM58.6 18.62V18H64.14V20.1H59.38V21.06H64.46V21.7H58.62V19.52H63.38V18.62H58.6ZM63.38 17.6V13.12H64.14V15H65.44V15.64H64.14V17.6H63.38Z" fill="white"/>
<defs>
<clipPath id="clip0_61_4670">
<rect width="42" height="42" fill="white" transform="translate(36 440)"/>
</clipPath>
<clipPath id="clip1_61_4670">
<rect width="16" height="16" fill="white" transform="translate(49 277)"/>
</clipPath>
<clipPath id="clip2_61_4670">
<rect width="16" height="16" fill="white" transform="translate(49 101)"/>
</clipPath>
<clipPath id="clip3_61_4670">
<rect width="42" height="42" fill="white" transform="translate(36)"/>
</clipPath>
</defs>
</svg>
