<svg width="16" height="16" viewBox="0 0 16 16" fill="none" xmlns="http://www.w3.org/2000/svg">
<g id="Directions bus" clip-path="url(#clip0_61_4551)">
<path id="Vector" d="M2.66667 10.6666C2.66667 11.2533 2.92667 11.78 3.33334 12.1466V13.3333C3.33334 13.7 3.63334 14 4.00001 14H4.66667C5.03334 14 5.33334 13.7 5.33334 13.3333V12.6666H10.6667V13.3333C10.6667 13.7 10.9667 14 11.3333 14H12C12.3667 14 12.6667 13.7 12.6667 13.3333V12.1466C13.0733 11.78 13.3333 11.2533 13.3333 10.6666V3.99998C13.3333 1.66665 10.9467 1.33331 8.00001 1.33331C5.05334 1.33331 2.66667 1.66665 2.66667 3.99998V10.6666ZM5.00001 11.3333C4.44667 11.3333 4.00001 10.8866 4.00001 10.3333C4.00001 9.77998 4.44667 9.33331 5.00001 9.33331C5.55334 9.33331 6.00001 9.77998 6.00001 10.3333C6.00001 10.8866 5.55334 11.3333 5.00001 11.3333ZM11 11.3333C10.4467 11.3333 10 10.8866 10 10.3333C10 9.77998 10.4467 9.33331 11 9.33331C11.5533 9.33331 12 9.77998 12 10.3333C12 10.8866 11.5533 11.3333 11 11.3333ZM12 7.33331H4.00001V3.99998H12V7.33331Z" fill="white"/>
</g>
<defs>
<clipPath id="clip0_61_4551">
<rect width="16" height="16" fill="white"/>
</clipPath>
</defs>
</svg>
