<svg width="20" height="20" viewBox="0 0 20 20" fill="none" xmlns="http://www.w3.org/2000/svg">
<circle cx="10" cy="10" r="10" fill="#396DE7"/>
<g clip-path="url(#clip0_61_4700)">
<path d="M4.66669 12.6667C4.66669 13.2534 4.92669 13.78 5.33335 14.1467V15.3334C5.33335 15.7 5.63335 16 6.00002 16H6.66669C7.03335 16 7.33335 15.7 7.33335 15.3334V14.6667H12.6667V15.3334C12.6667 15.7 12.9667 16 13.3334 16H14C14.3667 16 14.6667 15.7 14.6667 15.3334V14.1467C15.0734 13.78 15.3334 13.2534 15.3334 12.6667V6.00004C15.3334 3.66671 12.9467 3.33337 10 3.33337C7.05335 3.33337 4.66669 3.66671 4.66669 6.00004V12.6667ZM7.00002 13.3334C6.44669 13.3334 6.00002 12.8867 6.00002 12.3334C6.00002 11.78 6.44669 11.3334 7.00002 11.3334C7.55335 11.3334 8.00002 11.78 8.00002 12.3334C8.00002 12.8867 7.55335 13.3334 7.00002 13.3334ZM13 13.3334C12.4467 13.3334 12 12.8867 12 12.3334C12 11.78 12.4467 11.3334 13 11.3334C13.5534 11.3334 14 11.78 14 12.3334C14 12.8867 13.5534 13.3334 13 13.3334ZM14 9.33337H6.00002V6.00004H14V9.33337Z" fill="white"/>
</g>
<defs>
<clipPath id="clip0_61_4700">
<rect width="16" height="16" fill="white" transform="translate(2 2)"/>
</clipPath>
</defs>
</svg>
