<svg width="110" height="96" viewBox="0 0 110 96" fill="none" xmlns="http://www.w3.org/2000/svg">
<g id="Illust">
<g id="Illust_2">
<path id="Vector 9904" d="M23.947 55.9948C18.347 34.3948 38.947 24.6615 49.947 22.4948C52.7471 8.89471 64.447 6 69.947 4.49951C71.447 4.5 71.7565 5.40111 71.447 6.49951C70.1406 11.1386 70.447 17.6462 70.447 19.9948C79.3146 16.5842 85.4195 20.6861 88.2659 24.2419C88.7237 24.8138 88.437 25.8586 87.447 26C83.947 26.5 81.447 28.4948 79.447 30.4948C85.447 35.4948 90.947 43.9948 90.447 54.9948C89.947 65.9948 78.947 73.4948 73.447 75.9948C67.947 78.4948 30.947 82.9948 23.947 55.9948Z" fill="#FF8048"/>
<path id="Vector 9905" d="M73.447 75.9953C67.947 78.4953 30.947 82.9953 23.947 55.9953C23.2528 53.3174 22.9612 50.8218 23.0041 48.5005C25.6517 55.3337 36.147 68.8 56.947 68C82.947 67 88.6856 45.501 88.6856 43.5005C89.9483 46.9269 90.6387 50.7773 90.447 54.9953C89.947 65.9953 78.947 73.4953 73.447 75.9953Z" fill="#FB7236"/>
<ellipse id="Ellipse 61" opacity="0.5" cx="56" cy="89.5" rx="20" ry="4.5" fill="#9D9D9D"/>
<circle id="Ellipse 52" cx="46.9473" cy="45" r="11" fill="white"/>
<circle id="Ellipse 53" cx="67.9473" cy="49" r="11" fill="white"/>
<circle id="Ellipse 54" cx="66.5" cy="52.5" r="6.5" fill="#242424"/>
<circle id="Ellipse 55" cx="45.5" cy="48.5" r="6.5" fill="#242424"/>
<path id="Vector 9912" d="M14.3425 66.2243C15.5041 61.264 23.1602 54.4468 36.8218 54.8562C31.7328 60.5015 30.724 67.6072 28.8595 70.6732C26.8905 73.9113 24.2444 74.9948 21.0506 75.3451C17.8568 75.6954 12.8906 72.4247 14.3425 66.2243Z" fill="#ECECEC"/>
<path id="Vector 9913" d="M87.9031 74.041C88.5408 70.3836 85.3543 63.6266 76.0777 60C77.8776 65.2382 76.525 70.2904 76.8995 72.8785C77.2951 75.6118 78.7598 77.0938 80.8011 78.2407C82.8424 79.3875 87.1061 78.6128 87.9031 74.041Z" fill="#ECECEC"/>
<ellipse id="Ellipse 56" cx="102.291" cy="43.9017" rx="6.575" ry="8" transform="rotate(8.69162 102.291 43.9017)" fill="#FF8048"/>
<ellipse id="Ellipse 57" cx="9.6247" cy="43.5975" rx="6.5" ry="8" transform="rotate(-17.7014 9.6247 43.5975)" fill="#FF8048"/>
<ellipse id="Ellipse 58" cx="22.154" cy="23.2762" rx="6.5" ry="3" transform="rotate(22.7025 22.154 23.2762)" fill="white"/>
<ellipse id="Ellipse 59" cx="30.139" cy="14.061" rx="6.5" ry="3" transform="rotate(55.737 30.139 14.061)" fill="white"/>
<ellipse id="Ellipse 60" cx="41.1261" cy="9.9353" rx="6.5" ry="3" transform="rotate(79.5828 41.1261 9.9353)" fill="white"/>
</g>
</g>
</svg>
