<svg width="42" height="42" viewBox="0 0 42 42" fill="none" xmlns="http://www.w3.org/2000/svg">
<g clip-path="url(#clip0_61_4675)">
<path d="M21 5C14.2275 5 8.75 10.4882 8.75 17.2739C8.75 26.4793 21 37 21 37C21 37 33.25 26.4793 33.25 17.2739C33.25 10.4882 27.7725 5 21 5Z" fill="#AAAAAA"/>
<path d="M19.8574 16.98V17.98H17.2774V19.88H20.7574V20.88H12.6174V19.88H16.0574V17.98H13.5774V13.64H19.7974V14.62H14.8374V16.98H19.8574ZM24.54 14.92C24.54 15.84 25.18 16.8 26.62 17.18L26.04 18.18C25.04 17.9 24.34 17.31 23.93 16.58C23.54 17.38 22.83 18.01 21.8 18.3L21.2 17.34C22.64 16.94 23.3 15.92 23.3 14.92H21.5V13.94H23.3V12.98H24.56V13.94H26.32V14.92H24.54ZM22.34 19.82V18.82H28.32V21.9H27.06V19.82H22.34ZM27.06 18.46V13H28.32V15.2H29.52V16.24H28.32V18.46H27.06Z" fill="white"/>
</g>
<defs>
<clipPath id="clip0_61_4675">
<rect width="42" height="42" fill="white"/>
</clipPath>
</defs>
</svg>
