<svg width="42" height="42" viewBox="0 0 42 42" fill="none" xmlns="http://www.w3.org/2000/svg">
<g clip-path="url(#clip0_61_4743)">
<path d="M21 5C14.2275 5 8.75 10.4882 8.75 17.2739C8.75 26.4793 21 37 21 37C21 37 33.25 26.4793 33.25 17.2739C33.25 10.4882 27.7725 5 21 5Z" fill="#AAAAAA"/>
</g>
<path d="M20.6174 16.98V17.56H17.0374V18.38H19.5974V20.26H14.4374V21.1H19.8574V21.7H13.6974V19.72H18.8574V18.96H13.6774V18.38H16.2774V17.56H12.7174V16.98H20.6174ZM13.1374 16C14.7274 15.89 16.0874 15.35 16.2274 14.48H13.5174V13.88H16.2774V13.06H17.0374V13.88H19.8174V14.48H17.0874C17.2374 15.35 18.5974 15.89 20.1974 16L19.9574 16.58C18.4974 16.46 17.1974 16.01 16.6674 15.18C16.1274 16.01 14.8174 16.46 13.3574 16.58L13.1374 16ZM22.48 13.48V14.72H25V13.48H25.76V17.26H21.72V13.48H22.48ZM22.48 16.64H25V15.34H22.48V16.64ZM22.6 18.62V18H28.14V20.1H23.38V21.06H28.46V21.7H22.62V19.52H27.38V18.62H22.6ZM27.38 17.6V13.12H28.14V15H29.44V15.64H28.14V17.6H27.38Z" fill="white"/>
<defs>
<clipPath id="clip0_61_4743">
<rect width="42" height="42" fill="white"/>
</clipPath>
</defs>
</svg>
