<svg width="12" height="12" viewBox="0 0 12 12" fill="none" xmlns="http://www.w3.org/2000/svg">
<path id="Vector" d="M6.57106 0.397262C6.2278 0.158469 5.7722 0.158469 5.42894 0.397262L0.428935 3.87552C0.160214 4.06246 0 4.36908 0 4.69643V11C0 11.5523 0.447715 12 1 12H3.3125C3.86478 12 4.3125 11.5523 4.3125 11V9.17391C4.3125 8.62163 4.76022 8.17391 5.3125 8.17391H6.6875C7.23978 8.17391 7.6875 8.62163 7.6875 9.17391V11C7.6875 11.5523 8.13521 12 8.6875 12H11C11.5523 12 12 11.5523 12 11V4.69643C12 4.36908 11.8398 4.06246 11.5711 3.87552L6.57106 0.397262Z" fill="#242424"/>
</svg>
