<svg width="24" height="24" viewBox="0 0 24 24" fill="none" xmlns="http://www.w3.org/2000/svg">
<path id="Vector" d="M12.5711 0.397262C12.2278 0.158469 11.7722 0.158469 11.4289 0.397262L0.428935 8.04944C0.160214 8.23637 0 8.54299 0 8.87034V23C0 23.5523 0.447715 24 1 24H7.625C8.17729 24 8.625 23.5523 8.625 23V17.3478C8.625 16.7955 9.07271 16.3478 9.625 16.3478H14.375C14.9273 16.3478 15.375 16.7955 15.375 17.3478V23C15.375 23.5523 15.8227 24 16.375 24H23C23.5523 24 24 23.5523 24 23V8.87034C24 8.54299 23.8398 8.23637 23.5711 8.04944L12.5711 0.397262Z" fill="#BBBBBB"/>
</svg>
