<svg width="20" height="20" viewBox="0 0 20 20" fill="none" xmlns="http://www.w3.org/2000/svg">
<circle cx="10" cy="10" r="10" fill="#3CB44A"/>
<path d="M8.08 6.12V9.7H9.52V10.34H8.08V14.8H7.32V6.12H8.08ZM1.3 8.14V7.5H3.54V6.22H4.3V7.5H6.46V8.14H1.3ZM1.8 10.86C1.79 9.68 2.69 8.86 3.92 8.86C5.16 8.86 6.05 9.68 6.06 10.86C6.05 12.03 5.16 12.85 3.92 12.84C2.69 12.85 1.79 12.03 1.8 10.86ZM2.54 10.86C2.53 11.65 3.12 12.2 3.92 12.2C4.73 12.2 5.32 11.65 5.32 10.86C5.32 10.07 4.73 9.5 3.92 9.5C3.12 9.5 2.53 10.07 2.54 10.86ZM12.8826 8.94C12.8926 10.33 13.7926 11.76 15.0426 12.36L14.6026 12.96C13.6526 12.49 12.8926 11.54 12.5326 10.43C12.1526 11.63 11.3426 12.63 10.3626 13.1L9.90258 12.52C11.1926 11.92 12.1326 10.44 12.1426 8.94V8.24H10.1626V7.62H12.1426V6.28H12.9026V7.62H14.8626V8.24H12.8826V8.94ZM15.9426 14.8V6.12H16.7226V9.68H18.1626V10.34H16.7226V14.8H15.9426Z" fill="white"/>
</svg>
