<svg width="20" height="20" viewBox="0 0 20 20" fill="none" xmlns="http://www.w3.org/2000/svg">
<circle cx="10" cy="10" r="10" fill="#3CB44A"/>
<g clip-path="url(#clip0_61_4731)">
<path d="M10 3.33337C7.05335 3.33337 4.66669 3.66671 4.66669 6.00004V12.3334C4.66669 13.62 5.71335 14.6667 7.00002 14.6667L6.00002 15.6667V16H14V15.6667L13 14.6667C14.2867 14.6667 15.3334 13.62 15.3334 12.3334V6.00004C15.3334 3.66671 12.9467 3.33337 10 3.33337ZM7.00002 13.3334C6.44669 13.3334 6.00002 12.8867 6.00002 12.3334C6.00002 11.78 6.44669 11.3334 7.00002 11.3334C7.55335 11.3334 8.00002 11.78 8.00002 12.3334C8.00002 12.8867 7.55335 13.3334 7.00002 13.3334ZM9.33335 9.33337H6.00002V6.00004H9.33335V9.33337ZM13 13.3334C12.4467 13.3334 12 12.8867 12 12.3334C12 11.78 12.4467 11.3334 13 11.3334C13.5534 11.3334 14 11.78 14 12.3334C14 12.8867 13.5534 13.3334 13 13.3334ZM14 9.33337H10.6667V6.00004H14V9.33337Z" fill="white"/>
</g>
<defs>
<clipPath id="clip0_61_4731">
<rect width="16" height="16" fill="white" transform="translate(2 2)"/>
</clipPath>
</defs>
</svg>
