<svg width="16" height="16" viewBox="0 0 16 16" fill="none" xmlns="http://www.w3.org/2000/svg">
<g id="Group">
<path id="Vector" d="M12.7588 8.62823C12.7854 8.42823 12.7988 8.22156 12.7988 8.00156C12.7988 7.78823 12.7854 7.5749 12.7521 7.3749L14.1054 6.32156C14.2254 6.22823 14.2588 6.04823 14.1854 5.9149L12.9054 3.70156C12.8254 3.5549 12.6588 3.50823 12.5121 3.5549L10.9188 4.1949C10.5854 3.94156 10.2321 3.72823 9.83877 3.56823L9.59877 1.8749C9.5721 1.7149 9.43877 1.60156 9.27877 1.60156H6.71877C6.55877 1.60156 6.4321 1.7149 6.40544 1.8749L6.16544 3.56823C5.7721 3.72823 5.4121 3.94823 5.08544 4.1949L3.4921 3.5549C3.34544 3.50156 3.17877 3.5549 3.09877 3.70156L1.82544 5.9149C1.74544 6.0549 1.7721 6.22823 1.90544 6.32156L3.25877 7.3749C3.22544 7.5749 3.19877 7.7949 3.19877 8.00156C3.19877 8.20823 3.2121 8.42823 3.24544 8.62823L1.8921 9.68156C1.7721 9.7749 1.73877 9.9549 1.8121 10.0882L3.0921 12.3016C3.1721 12.4482 3.33877 12.4949 3.48544 12.4482L5.07877 11.8082C5.4121 12.0616 5.76544 12.2749 6.15877 12.4349L6.39877 14.1282C6.4321 14.2882 6.55877 14.4016 6.71877 14.4016H9.27877C9.43877 14.4016 9.5721 14.2882 9.5921 14.1282L9.8321 12.4349C10.2254 12.2749 10.5854 12.0616 10.9121 11.8082L12.5054 12.4482C12.6521 12.5016 12.8188 12.4482 12.8988 12.3016L14.1788 10.0882C14.2588 9.94156 14.2254 9.7749 14.0988 9.68156L12.7588 8.62823ZM7.99877 10.4016C6.67877 10.4016 5.59877 9.32156 5.59877 8.00156C5.59877 6.68156 6.67877 5.60156 7.99877 5.60156C9.31877 5.60156 10.3988 6.68156 10.3988 8.00156C10.3988 9.32156 9.31877 10.4016 7.99877 10.4016Z" fill="#242424"/>
</g>
</svg>
