<svg width="16" height="16" viewBox="0 0 16 16" fill="none" xmlns="http://www.w3.org/2000/svg">
<g id="Directions subway" clip-path="url(#clip0_61_4582)">
<path id="Vector" d="M8 1.33331C5.05334 1.33331 2.66667 1.66665 2.66667 3.99998V10.3333C2.66667 11.62 3.71334 12.6666 5.00001 12.6666L4.00001 13.6666V14H12V13.6666L11 12.6666C12.2867 12.6666 13.3333 11.62 13.3333 10.3333V3.99998C13.3333 1.66665 10.9467 1.33331 8 1.33331ZM5.00001 11.3333C4.44667 11.3333 4.00001 10.8866 4.00001 10.3333C4.00001 9.77998 4.44667 9.33331 5.00001 9.33331C5.55334 9.33331 6 9.77998 6 10.3333C6 10.8866 5.55334 11.3333 5.00001 11.3333ZM7.33334 7.33331H4.00001V3.99998H7.33334V7.33331ZM11 11.3333C10.4467 11.3333 10 10.8866 10 10.3333C10 9.77998 10.4467 9.33331 11 9.33331C11.5533 9.33331 12 9.77998 12 10.3333C12 10.8866 11.5533 11.3333 11 11.3333ZM12 7.33331H8.66667V3.99998H12V7.33331Z" fill="white"/>
</g>
<defs>
<clipPath id="clip0_61_4582">
<rect width="16" height="16" fill="white"/>
</clipPath>
</defs>
</svg>
